<svg viewBox="0 0 640 400" data-background-color="#ffffff" preserveAspectRatio="xMidYMid meet" height="400" width="640" xmlns="http://www.w3.org/2000/svg" xmlns:xlink="http://www.w3.org/1999/xlink"><rect width="640" height="400" x="0" y="0" opacity="1" fill="#ffffff" data-fill-palette-color="background" id="background"></rect><g id="tight-bounds" transform="matrix(1,0,0,1,122.24000000000001,76.4)"><svg viewBox="0 0 395.52 247.2" height="247.2" width="395.52"><g><svg></svg></g><g><svg viewBox="0 0 395.52 247.2" height="247.2" width="395.52"><mask id="0fa96375-4c6b-4187-87f5-d79a3246b63a"><rect width="640" height="400" fill="white"></rect><g transform="matrix(1,0,0,1,39.55199999999999,39.36645072894689)"><svg viewBox="0 0 316.416 168.4670985421062" height="168.4670985421062" width="316.416"><g><svg viewBox="0 0 316.416 168.4670985421062" height="168.4670985421062" width="316.416"><g><svg viewBox="0 0 316.416 168.4670985421062" height="168.4670985421062" width="316.416"><g><svg viewBox="0 0 316.416 168.4670985421062" height="168.4670985421062" width="316.416"><g id="SvgjsG1043"><svg viewBox="0 0 316.416 168.4670985421062" height="168.4670985421062" width="316.416" id="SvgjsSvg1042"><g><svg viewBox="0 0 316.416 95.21496609085095" height="95.21496609085095" width="316.416"><g transform="matrix(1,0,0,1,0,0)"><svg width="316.416" viewBox="-1.4000000953674316 -47.599998474121094 235.4199981689453 71.54999923706055" height="95.21496609085095" data-palette-color="#0063db"><path d="M3 0Q2.75 0 2.75-0.5L2.75-0.5Q2.75-1.05 3-1.5 3.25-1.95 3.85-2.55L3.85-2.55Q5-3.6 5.35-4.08 5.7-4.55 5.88-5.33 6.05-6.1 6.5-8.6L6.5-8.6 9.55-26.4Q9.75-27.65 11.28-28.9 12.8-30.15 14-30.15L14-30.15Q14.55-30.15 14.55-29.9L14.55-29.9Q14.55-29.75 14.08-29.05 13.6-28.35 13.35-26.7L13.35-26.7 11.85-17.15Q12.55-17 14.05-17L14.05-17Q16.45-17 18.32-18.13 20.2-19.25 21.25-21.2 22.3-23.15 22.3-25.55L22.3-25.55Q22.3-28.95 20.2-30.73 18.1-32.5 14.2-32.5L14.2-32.5Q11.2-32.5 8.65-31.4 6.1-30.3 4.15-28.1L4.15-28.1Q3.7-27.5 3.45-27.28 3.2-27.05 2.9-27.05L2.9-27.05Q2.6-27.05 2.6-27.4L2.6-27.4 2.65-27.95Q3.1-29.8 4.9-31.48 6.7-33.15 9.55-34.18 12.4-35.2 15.8-35.2L15.8-35.2Q20.55-35.2 23.4-33.08 26.25-30.95 26.25-27.2L26.25-27.2Q26.25-23.9 24.05-21.03 21.85-18.15 18.38-16.32 14.9-14.5 11.2-14.2L11.2-14.2 9.75-5.5Q9.5-4.2 8.8-3.4L8.8-3.4 8.8-3.35Q9.05-3.25 9.55-3.08 10.05-2.9 10.55-2.9L10.55-2.9Q11.15-2.9 11.78-3.18 12.4-3.45 12.6-3.45L12.6-3.45Q12.9-3.45 12.9-3.1L12.9-3.1Q12.9-2.65 12.3-2.05L12.3-2.05Q10.4 0 9.25 0L9.25 0Q8.8 0 7.6-0.4L7.6-0.4Q6-0.85 5.5-0.85L5.5-0.85Q4.75-0.85 3.95-0.43 3.15 0 3 0L3 0ZM30 0.5Q27.75 0.5 26.42-1.23 25.1-2.95 25.1-6L25.1-6Q25.1-9.7 26.87-13.93 28.65-18.15 31.45-20.98 34.25-23.8 37.1-23.8L37.1-23.8Q39.7-23.8 39.7-20.65L39.7-20.65Q39.7-18.1 38.2-15.65 36.7-13.2 34.17-11.33 31.65-9.45 28.65-8.45L28.65-8.45Q28.65-5.75 29.52-4.55 30.4-3.35 32.1-3.35L32.1-3.35Q33.9-3.35 35.4-4.5 36.9-5.65 37.95-7.65L37.95-7.65Q38.1-7.95 38.25-8.15 38.4-8.35 38.65-8.35L38.65-8.35Q39.05-8.35 39.05-7.75L39.05-7.75Q39.05-6.4 37.7-4.4 36.35-2.4 34.25-0.95 32.15 0.5 30 0.5L30 0.5ZM30.25-11.1Q31.55-11.1 33.02-12.03 34.5-12.95 35.5-14.55 36.5-16.15 36.5-18.15L36.5-18.15Q36.5-20.5 34.85-20.5L34.85-20.5Q33.5-20.5 32.27-19.05 31.05-17.6 30.22-15.45 29.4-13.3 29.1-11.3L29.1-11.3Q29.4-11.1 30.25-11.1L30.25-11.1ZM48.09 0.5Q46.59 0.5 46-0.53 45.4-1.55 45.4-3.3L45.4-3.3Q45.4-4.6 45.62-6.08 45.84-7.55 45.9-7.85L45.9-7.85 47.95-20.7 42.9-20.7Q42.65-20.7 42.65-20.95L42.65-20.95Q42.65-21.45 43.75-22.38 44.84-23.3 45.34-23.3L45.34-23.3 48.34-23.3 48.84-26.4Q49.05-28.05 50.4-29.35 51.75-30.65 53.09-30.65L53.09-30.65Q53.34-30.65 53.34-30.4L53.34-30.4Q53.34-30.2 52.9-29.23 52.45-28.25 52.25-27.15L52.25-27.15 51.65-23.3 56.55-23.3Q56.84-23.3 56.84-23L56.84-23Q56.84-22.6 55.67-21.65 54.5-20.7 54.15-20.7L54.15-20.7 51.34-20.7 49.3-7.95Q49.25-7.6 49.02-6.25 48.8-4.9 48.8-4.15L48.8-4.15Q48.8-2.5 49.9-2.5L49.9-2.5Q50.7-2.5 51.59-3.28 52.5-4.05 53.2-5.45L53.2-5.45Q53.25-5.55 53.32-5.65 53.4-5.75 53.5-5.75L53.5-5.75Q53.75-5.75 53.75-5.1L53.75-5.1Q53.75-4.1 52.87-2.75 52-1.4 50.67-0.45 49.34 0.5 48.09 0.5L48.09 0.5ZM75.69 0.5Q73.14 0.5 73.14-4.35L73.14-4.35Q73.14-9 75.17-13.53 77.19-18.05 80.64-20.93 84.09-23.8 88.09-23.8L88.09-23.8Q90.14-23.8 91.64-23.15L91.64-23.15Q90.99-20.6 90.74-19.4L90.74-19.4 89.69-14Q88.29-7.6 87.99-5.15L87.99-5.15Q87.94-4.8 87.94-4.3L87.94-4.3Q87.94-3.2 88.59-3.2L88.59-3.2Q89.39-3.2 90.09-4.23 90.79-5.25 91.69-7.15L91.69-7.15Q91.74-7.2 91.87-7.45 91.99-7.7 92.19-7.7L92.19-7.7Q92.49-7.7 92.49-7.1L92.49-7.1 92.39-6.3Q92.04-4.65 90.97-3.05 89.89-1.45 88.57-0.48 87.24 0.5 86.19 0.5L86.19 0.5Q84.44 0.5 84.44-2.35L84.44-2.35Q84.44-3.45 84.69-4.6L84.69-4.6 85.54-8.95 85.49-8.95Q83.09-4.75 80.37-2.13 77.64 0.5 75.69 0.5L75.69 0.5ZM78.04-3.6Q79.44-3.6 81.27-5.78 83.09-7.95 84.67-11.1 86.24-14.25 86.84-16.75L86.84-16.75 87.64-19.95Q86.14-20.95 84.49-20.95L84.49-20.95Q82.34-20.95 80.57-18.48 78.79-16 77.79-12.48 76.79-8.95 76.79-6.1L76.79-6.1Q76.79-4.85 77.07-4.23 77.34-3.6 78.04-3.6L78.04-3.6ZM98.14 0.5Q95.59 0.5 95.59-4.4L95.59-4.4Q95.59-8.95 97.59-13.48 99.59-18 102.99-20.9 106.39-23.8 110.29-23.8L110.29-23.8 110.79-23.8Q112.44-30.7 113.89-34.2 115.34-37.7 117.74-40L117.74-40Q119.34-41.5 120.64-42.05 121.94-42.6 124.19-43.05L124.19-43.05Q125.19-43.25 125.61-43.43 126.04-43.6 126.19-43.6L126.19-43.6Q126.54-43.6 126.54-43.2L126.54-43.2Q126.54-42.55 125.59-41.75L125.59-41.75Q125.09-41.3 124.66-41.15 124.24-41 123.84-40.95 123.44-40.9 123.24-40.85L123.24-40.85Q120.64-40.5 118.84-38.25L118.84-38.25Q117.49-36.5 116.46-33.25 115.44-30 113.69-21.9L113.69-21.9Q110.79-7.9 110.44-5.15L110.44-5.15Q110.39-4.8 110.39-4.3L110.39-4.3Q110.39-3.2 111.04-3.2L111.04-3.2Q111.84-3.2 112.56-4.28 113.29-5.35 114.09-7.15L114.09-7.15Q114.39-7.7 114.64-7.7L114.64-7.7Q114.94-7.7 114.94-7.15L114.94-7.15 114.84-6.3Q114.44-4.55 113.36-2.98 112.29-1.4 110.96-0.45 109.64 0.5 108.54 0.5L108.54 0.5Q106.94 0.5 106.94-2.15L106.94-2.15Q106.94-3.15 107.14-4.55L107.14-4.55 107.99-8.95 107.94-8.95Q106.09-5.75 103.24-2.63 100.39 0.5 98.14 0.5L98.14 0.5ZM100.49-3.6Q101.89-3.6 103.71-5.78 105.54-7.95 107.11-11.1 108.69-14.25 109.29-16.75L109.29-16.75 110.09-19.95Q108.59-20.95 106.94-20.95L106.94-20.95Q104.79-20.95 103.01-18.48 101.24-16 100.24-12.48 99.24-8.95 99.24-6.1L99.24-6.1Q99.24-4.85 99.51-4.23 99.79-3.6 100.49-3.6L100.49-3.6ZM122.54 0.5Q120.44 0.5 119.36-1.13 118.29-2.75 118.29-5.65L118.29-5.65Q118.29-9.7 120.24-13.95 122.19-18.2 125.06-21 127.94-23.8 130.54-23.8L130.54-23.8Q132.49-23.8 133.54-22.08 134.59-20.35 134.59-17.55L134.59-17.55Q134.59-13.8 132.76-9.55 130.94-5.3 128.14-2.4 125.34 0.5 122.54 0.5L122.54 0.5ZM124.99-2.8Q126.64-2.8 127.99-4.48 129.34-6.15 130.14-8.93 130.94-11.7 130.94-14.8L130.94-14.8Q130.94-20.5 127.99-20.5L127.99-20.5Q126.14-20.5 124.76-18.5 123.39-16.5 122.66-13.63 121.94-10.75 121.94-8.25L121.94-8.25Q121.94-5.85 122.66-4.33 123.39-2.8 124.99-2.8L124.99-2.8ZM129.68 19.95Q126.98 19.95 124.83 18.53 122.68 17.1 121.83 14.55L121.83 14.55Q121.73 14.15 121.73 13.9L121.73 13.9Q121.73 12.95 122.41 12.08 123.08 11.2 123.93 10.85L123.93 10.85 124.33 10.75Q124.53 10.75 124.58 11 124.63 11.25 124.63 11.3L124.63 11.3Q125.03 14.45 126.66 16.1 128.28 17.75 130.98 17.75L130.98 17.75Q134.08 17.75 135.98 14.83 137.88 11.9 138.83 5.65L138.83 5.65 142.33-16.85Q142.63-18.65 142.63-19.4L142.63-19.4Q142.63-20.15 142.23-20.15L142.23-20.15Q141.78-20.15 141.08-19.4 140.38-18.65 139.78-17.65L139.78-17.65Q139.58-17.35 139.33-16.93 139.08-16.5 138.93-16.38 138.78-16.25 138.63-16.25L138.63-16.25Q138.33-16.25 138.33-16.8L138.33-16.8Q138.33-17.7 139.43-19.43 140.53-21.15 142.01-22.48 143.48-23.8 144.58-23.8L144.58-23.8Q145.48-23.8 145.91-23.13 146.33-22.45 146.23-21.35L146.23-21.35Q146.08-19.85 145.58-16.85L145.58-16.85Q145.28-15.15 145.18-14.5L145.18-14.5 145.23-14.5Q147.18-18.05 149.91-20.93 152.63-23.8 154.63-23.8L154.63-23.8Q156.08-23.8 156.63-22.35 157.18-20.9 157.18-17.75L157.18-17.75Q157.18-13.45 155.23-9.18 153.28-4.9 150.21-2.2 147.13 0.5 143.88 0.5L143.88 0.5Q143.43 0.5 143.03 0.35L143.03 0.35 142.18 5.35Q141.43 9.65 139.66 12.98 137.88 16.3 135.31 18.13 132.73 19.95 129.68 19.95L129.68 19.95ZM146.78-2.5Q148.68-2.5 150.23-4.78 151.78-7.05 152.66-10.38 153.53-13.7 153.53-16.6L153.53-16.6Q153.53-18.25 153.28-18.98 153.03-19.7 152.48-19.7L152.48-19.7Q151.13-19.7 149.28-17.6 147.43-15.5 145.93-12.4 144.43-9.3 144.03-6.5L144.03-6.5 143.53-3.4Q144.33-2.9 145.08-2.7 145.83-2.5 146.78-2.5L146.78-2.5ZM165.58 0.5Q164.08 0.5 163.48-0.53 162.88-1.55 162.88-3.3L162.88-3.3Q162.88-4.6 163.11-6.08 163.33-7.55 163.38-7.85L163.38-7.85 165.43-20.7 160.38-20.7Q160.13-20.7 160.13-20.95L160.13-20.95Q160.13-21.45 161.23-22.38 162.33-23.3 162.83-23.3L162.83-23.3 165.83-23.3 166.33-26.4Q166.53-28.05 167.88-29.35 169.23-30.65 170.58-30.65L170.58-30.65Q170.83-30.65 170.83-30.4L170.83-30.4Q170.83-30.2 170.38-29.23 169.93-28.25 169.73-27.15L169.73-27.15 169.13-23.3 174.03-23.3Q174.33-23.3 174.33-23L174.33-23Q174.33-22.6 173.16-21.65 171.98-20.7 171.63-20.7L171.63-20.7 168.83-20.7 166.78-7.95Q166.73-7.6 166.51-6.25 166.28-4.9 166.28-4.15L166.28-4.15Q166.28-2.5 167.38-2.5L167.38-2.5Q168.18-2.5 169.08-3.28 169.98-4.05 170.68-5.45L170.68-5.45Q170.73-5.55 170.81-5.65 170.88-5.75 170.98-5.75L170.98-5.75Q171.23-5.75 171.23-5.1L171.23-5.1Q171.23-4.1 170.36-2.75 169.48-1.4 168.16-0.45 166.83 0.5 165.58 0.5L165.58 0.5ZM182.28-26.65Q181.78-26.65 181.83-27.15L181.83-27.15 182.43-30.65Q182.68-32.1 183.5-32.88 184.33-33.65 185.58-33.65L185.58-33.65 185.78-33.65Q186.08-33.65 186.15-33.55 186.23-33.45 186.18-33.15L186.18-33.15 185.63-29.7Q185.43-28.3 184.58-27.48 183.73-26.65 182.48-26.65L182.48-26.65 182.28-26.65ZM179.33 0.5Q177.73 0.5 177.73-1.8L177.73-1.8Q177.73-2.95 178.03-4.45L178.03-4.45 180.43-17.8Q180.63-19.1 180.63-19.4L180.63-19.4Q180.63-20.15 180.18-20.15L180.18-20.15Q179.58-20.15 178.73-19.2 177.88-18.25 176.88-16.2L176.88-16.2Q176.68-15.6 176.38-15.6L176.38-15.6Q176.08-15.6 176.08-16.1L176.08-16.1Q176.08-17.3 177.15-19.18 178.23-21.05 179.8-22.43 181.38-23.8 182.73-23.8L182.73-23.8Q184.28-23.8 184.28-21.6L184.28-21.6Q184.28-20.55 183.98-18.85L183.98-18.85 181.38-4.4 181.28-3.75Q181.28-3.2 181.73-3.2L181.73-3.2Q182.33-3.2 183.18-4.17 184.03-5.15 185.03-7.15L185.03-7.15Q185.28-7.7 185.53-7.7L185.53-7.7Q185.83-7.7 185.83-7.05L185.83-7.05Q185.83-5.9 184.75-4.08 183.68-2.25 182.13-0.88 180.58 0.5 179.33 0.5L179.33 0.5ZM193.63 0.5Q191.53 0.5 190.45-1.13 189.38-2.75 189.38-5.65L189.38-5.65Q189.38-9.7 191.33-13.95 193.28-18.2 196.15-21 199.03-23.8 201.63-23.8L201.63-23.8Q203.58-23.8 204.63-22.08 205.68-20.35 205.68-17.55L205.68-17.55Q205.68-13.8 203.85-9.55 202.03-5.3 199.23-2.4 196.43 0.5 193.63 0.5L193.63 0.5ZM196.08-2.8Q197.73-2.8 199.08-4.48 200.43-6.15 201.23-8.93 202.03-11.7 202.03-14.8L202.03-14.8Q202.03-20.5 199.08-20.5L199.08-20.5Q197.23-20.5 195.85-18.5 194.48-16.5 193.75-13.63 193.03-10.75 193.03-8.25L193.03-8.25Q193.03-5.85 193.75-4.33 194.48-2.8 196.08-2.8L196.08-2.8ZM210.37 0.5Q209.92 0.5 209.92 0.2L209.92 0.2Q209.92 0 210.15-0.68 210.37-1.35 210.77-3L210.77-3Q211.77-7.15 213.17-16.85L213.17-16.85Q213.47-18.75 213.47-19.5L213.47-19.5Q213.47-20.15 213.17-20.15L213.17-20.15Q212.32-20.15 210.62-17.15L210.62-17.15Q210.37-16.7 210.17-16.38 209.97-16.05 209.85-15.9 209.72-15.75 209.57-15.75L209.57-15.75Q209.17-15.75 209.17-16.25L209.17-16.25Q209.17-17.25 210.27-19.1 211.37-20.95 212.87-22.38 214.37-23.8 215.57-23.8L215.57-23.8Q216.37-23.8 216.72-23.1 217.07-22.4 217.07-21.35L217.07-21.35Q217.07-19.7 216.27-14.9L216.27-14.9 216.32-14.9Q218.62-18.95 221.37-21.38 224.12-23.8 226.12-23.8L226.12-23.8Q228.22-23.8 228.22-20.85L228.22-20.85Q228.22-19.75 227.77-17.15L227.77-17.15 226.62-11.15Q225.37-4.8 225.37-3.95L225.37-3.95Q225.37-3.6 225.55-3.33 225.72-3.05 226.12-3.05L226.12-3.05Q227.47-3.05 229.22-7.15L229.22-7.15Q229.37-7.7 229.72-7.7L229.72-7.7Q230.02-7.7 230.02-7.1L230.02-7.1Q230.02-6.65 229.97-6.3L229.97-6.3Q229.62-4.5 228.52-2.93 227.42-1.35 226.07-0.43 224.72 0.5 223.62 0.5L223.62 0.5Q222.57 0.5 222.2-0.38 221.82-1.25 221.82-2.3L221.82-2.3Q221.82-4.55 223.07-10.4L223.07-10.4Q224.27-16.1 224.37-18.3L224.37-18.3Q224.42-19.2 224.25-19.58 224.07-19.95 223.42-19.95L223.42-19.95Q221.87-19.95 220.1-17.9 218.32-15.85 216.92-12.88 215.52-9.9 215.07-7.45L215.07-7.45 214.27-3.1Q213.97-1.8 212.67-0.65 211.37 0.5 210.37 0.5L210.37 0.5Z" opacity="1" transform="matrix(1,0,0,1,0,0)" fill="black" class="wordmark-text-0" id="SvgjsPath1041" stroke-width="7" stroke="black" stroke-linejoin="round"></path></svg></g></svg></g><g transform="matrix(1,0,0,1,3.5,115.462661167826)"><svg viewBox="0 0 309.416 53.004437374280236" height="53.004437374280236" width="309.416"><g transform="matrix(1,0,0,1,0,0)"><svg width="309.416" viewBox="-3.099999964237213 -42.650001525878906 287.94000244140625 49.85000228881836" height="53.004437374280236" data-palette-color="#0063db"><path d="M33.2-22.25L33.2-22.25Q34.35-22.25 34.35-20.8L34.35-20.8Q34.35-19.25 33.1-17.9L33.1-17.9Q30.9-15.45 29.05-11.75L29.05-11.75Q26.25-6.15 26.25-1.65L26.25-1.65Q26.25 0.1 26.88 0.9 27.5 1.7 28.3 1.7L28.3 1.7Q30.7 1.7 33.9-2.2L33.9-2.2Q36.75-5.85 38.25-9.3L38.25-9.3Q38.65-10.1 39.05-10 39.45-9.9 39.1-9.1L39.1-9.1Q37.05-4.55 34.45-1.1L34.45-1.1Q33.1 0.75 31.1 1.98 29.1 3.2 27.13 3.2 25.15 3.2 24.15 1.63 23.15 0.05 23.15-2.1 23.15-4.25 23.68-6.35 24.2-8.45 25.05-9.6L25.05-9.6Q20-3.55 14.3 0.1L14.3 0.1Q11.3 1.95 7.65 2.3L7.65 2.3Q7.3 2.35 6.48 2.35 5.65 2.35 4.5 1.75L4.5 1.75Q0.9 0.25 0.9-5.58 0.9-11.4 4.7-18.2L4.7-18.2Q6.7-21.8 9.1-24.55L9.1-24.55Q5.75-26.15 4.1-28L4.1-28Q2.9-29.35 2.9-31.25 2.9-33.15 3.65-33.65L3.65-33.65Q4.15-34.3 4.55-33.9L4.55-33.9Q4.85-33.45 4.58-32.8 4.3-32.15 4.3-31.55L4.3-31.55Q4.3-30.2 5.75-28.55 7.2-26.9 10-25.6L10-25.6Q21.75-38.65 34.4-38.65L34.4-38.65Q38.35-38.65 40.68-36.88 43-35.1 43-32.3L43-32.3Q43-29.25 39.6-26.4L39.6-26.4Q37.9-24.9 34.75-23.8L34.75-23.8Q29.95-22.1 23.33-22.1 16.7-22.1 12.35-23.5L12.35-23.5Q7.3-16.35 5.4-11.63 3.5-6.9 3.5-4.3L3.5-4.3Q3.5-3.75 3.55-3.3L3.55-3.3Q4.15 0.85 7.75 0.85L7.75 0.85Q11.8 0.85 17.15-3.55L17.15-3.55Q20.95-6.75 24.6-11.15 28.25-15.55 30.03-18.9 31.8-22.25 33.2-22.25ZM40.95-32.9L40.95-32.9Q40.95-35.05 39.18-36.2 37.4-37.35 34.3-37.35 31.2-37.35 28.13-36.35 25.05-35.35 22.38-33.4 19.7-31.45 17.63-29.4 15.55-27.35 13.15-24.5L13.15-24.5Q16.9-23.3 22.35-23.3L22.35-23.3Q32.6-23.3 37.3-26.6L37.3-26.6Q40.95-29.15 40.95-32.9ZM66.26-16.4L66.26-16.4Q60.11-5.6 60.11-2.3L60.11-2.3Q60.11-1 61.06-1L61.06-1Q63.61-1 67.91-9.65L67.91-9.65Q68.21-10.35 68.51-10.2 68.81-10.05 68.81-9.8 68.81-9.55 68.61-9.2L68.61-9.2Q65.96-3.85 64.14-1.83 62.31 0.2 60.49 0.2 58.66 0.2 57.71-1.2L57.71-1.2Q57.21-1.85 57.21-2.98 57.21-4.1 57.71-5.7 58.21-7.3 60.46-10.9L60.46-10.9Q61.01-11.8 61.01-12.33 61.01-12.85 60.16-12.85 59.31-12.85 56.91-10.6L56.91-10.6Q53.31-7.3 49.96-0.7L49.96-0.7Q49.66-0.2 49.29-0.08 48.91 0.05 47.81 0.1 46.71 0.15 46.36 0.35L46.36 0.35Q47.16-1.25 49.51-6.2L49.51-6.2Q53.71-14.95 55.01-16.2L55.01-16.2Q55.61-16.8 56.66-16.8L56.66-16.8Q56.86-16.8 57.69-16.65 58.51-16.5 58.91-16.6L58.91-16.6Q57.06-15.6 52.86-7.2L52.86-7.2Q55.21-10.1 57.14-11.83 59.06-13.55 61.76-15.03 64.46-16.5 65.71-16.5L65.71-16.5Q66.01-16.5 66.26-16.4ZM87.47-19.45Q86.77-18.85 85.92-18.85 85.07-18.85 84.57-19.45 84.07-20.05 84.17-20.9L84.17-20.9Q84.32-21.75 85.02-22.35 85.72-22.95 86.57-22.95 87.42-22.95 87.95-22.35 88.47-21.75 88.32-20.9 88.17-20.05 87.47-19.45ZM82.57-1.1L82.57-1.1Q83.52-1.1 84.57-2.05L84.57-2.05Q86.42-3.9 89.27-9.6L89.27-9.6Q89.62-10.35 89.97-10.05L89.97-10.05Q90.07-9.95 90.07-9.73 90.07-9.5 89.67-8.63 89.27-7.75 88.95-7.05 88.62-6.35 87.7-4.78 86.77-3.2 86.02-2.35L86.02-2.35Q83.97 0 82.15 0 80.32 0 79.52-1.1 78.72-2.2 78.72-3.55 78.72-4.9 79.37-6.5L79.37-6.5 82.57-14.65Q82.67-14.95 82.67-15.45 82.67-15.95 82.07-16.75L82.07-16.75 84.82-16.8Q85.97-16.8 86.17-16.38 86.37-15.95 85.87-15.05L85.87-15.05 81.87-5.7Q81.02-3.85 81.02-2.55L81.02-2.55Q81.02-1.1 82.57-1.1ZM125.68-16.4L125.68-16.4Q119.58-5.55 119.58-2.4L119.58-2.4Q119.58-1 120.53-1L120.53-1Q121.73-1 123.28-2.8L123.28-2.8Q125.63-5.65 127.38-9.65L127.38-9.65Q127.68-10.35 127.98-10.2 128.28-10.05 128.28-9.8 128.28-9.55 127.78-8.55 127.28-7.55 126.98-6.95 126.68-6.35 125.66-4.65 124.63-2.95 123.91-2.15 123.18-1.35 122.06-0.58 120.93 0.2 119.51 0.2 118.08 0.2 117.08-1.2L117.08-1.2Q116.63-1.85 116.63-2.98 116.63-4.1 117.13-5.7 117.63-7.3 119.88-10.9L119.88-10.9Q120.43-11.8 120.43-12.33 120.43-12.85 119.61-12.85 118.78-12.85 116.63-10.85 114.48-8.85 112.11-5.45 109.73-2.05 109.28 0L109.28 0Q108.43 0 108.03-0.7 107.63-1.4 107.63-1.9L107.63-1.9Q107.63-3.95 110.38-9.7L110.38-9.7Q111.28-11.6 111.33-12.28 111.38-12.95 111.16-12.98 110.93-13 110.53-12.8L110.53-12.8Q109.63-12.35 107.78-10.6L107.78-10.6Q104.28-7.4 100.88-0.85L100.88-0.85Q100.63-0.3 100.26-0.18 99.88-0.05 98.78 0 97.68 0.05 97.33 0.25L97.33 0.25Q98.23-1.5 100.48-6.3L100.48-6.3Q104.53-14.9 105.88-16.2L105.88-16.2Q106.48-16.8 107.53-16.8L107.53-16.8Q107.73-16.8 108.56-16.65 109.38-16.5 109.78-16.6L109.78-16.6Q107.93-15.6 103.73-7.2L103.73-7.2Q106.08-10.1 107.11-11 108.13-11.9 108.63-12.35 109.13-12.8 109.41-13.05 109.68-13.3 110.21-13.78 110.73-14.25 111.01-14.48 111.28-14.7 111.78-15.1 112.28-15.5 112.56-15.63 112.83-15.75 113.31-16.05 113.78-16.35 114.01-16.35 114.23-16.35 114.63-16.48 115.03-16.6 115.18-16.4L115.18-16.4Q116.18-16 116.18-15.15L116.18-15.15Q116.18-14.4 114.48-11.3 112.78-8.2 112.28-7.2L112.28-7.2Q114.48-9.95 116.48-11.73 118.48-13.5 121.21-15 123.93-16.5 125.18-16.5L125.18-16.5Q125.48-16.5 125.68-16.4ZM155.29-13.55Q154.39-12.65 152.74-9.47 151.09-6.3 150.77-4.73 150.44-3.15 150.44-2.18 150.44-1.2 151.19-1.2L151.19-1.2Q152.14-1.2 153.54-2.95L153.54-2.95Q155.59-5.5 157.59-9.6L157.59-9.6Q157.79-10.05 158.04-10.1L158.04-10.1Q158.44-10.25 158.44-9.8L158.44-9.8Q158.44-9.55 158.29-9.2L158.29-9.2Q153.69 0.1 150.54 0.1L150.54 0.1Q149.09 0.1 148.19-1.3L148.19-1.3Q147.74-2.05 147.74-3.3 147.74-4.55 148.24-6.35L148.24-6.35Q144.24 0.1 141.34 0.1L141.34 0.1Q140.54 0.1 139.89-0.4L139.89-0.4Q138.39-1.45 138.39-4L138.39-4Q138.39-8.9 142.64-13.95L142.64-13.95Q145.04-16.75 148.54-17.6L148.54-17.6Q149.49-17.85 150.34-17.85L150.34-17.85Q152.64-17.85 154.24-16.25L154.24-16.25Q154.74-15.7 154.54-15.2 154.34-14.7 153.69-14.8L153.69-14.8Q153.14-16.6 151.29-16.6L151.29-16.6Q149.14-16.6 145.99-13.2L145.99-13.2Q144.19-11.2 142.64-8.5L142.64-8.5Q140.69-5.25 140.69-3.3 140.69-1.35 141.94-1.35L141.94-1.35Q144.94-1.35 149.79-10.55L149.79-10.55Q150.74-12.4 151.39-13.08 152.04-13.75 153.04-13.75L153.04-13.75Q153.24-13.75 154.07-13.6 154.89-13.45 155.29-13.55L155.29-13.55ZM173.05-9.65Q173-9.45 172.6-8.28 172.2-7.1 171.93-6.03 171.65-4.95 171.65-3.88 171.65-2.8 172.15-1.88 172.65-0.95 173.75-0.95L173.75-0.95Q175.55-0.95 177.25-3.38 178.95-5.8 180.85-9.55L180.85-9.55Q181.25-10.25 181.6-10.1L181.6-10.1Q181.85-9.9 181.7-9.58 181.55-9.25 181.08-8.18 180.6-7.1 180.38-6.68 180.15-6.25 179.58-5.18 179-4.1 178.58-3.58 178.15-3.05 177.43-2.23 176.7-1.4 176.05-1L176.05-1Q174.3 0.1 172.75 0.1 171.2 0.1 170.35-0.58 169.5-1.25 169.33-2.02 169.15-2.8 169.15-3.4 169.15-4 169.2-4.95L169.2-4.95Q169.35-6.55 169.83-8.05 170.3-9.55 170.35-9.75L170.35-9.75Q171.5-13.9 173.63-18.8 175.75-23.7 177.23-26.18 178.7-28.65 179.55-29.55L179.55-29.55Q181.25-31.35 182.9-31.35L182.9-31.35Q184.05-31.35 184.45-29.7L184.45-29.7Q184.5-29.4 184.5-28.95L184.5-28.95Q184.5-27.25 183.3-24.65L183.3-24.65Q179-15.1 173.05-9.65L173.05-9.65ZM173.45-11.25Q176-13.85 178.5-17.8 181-21.75 182.18-24.53 183.35-27.3 183.35-28.3 183.35-29.3 183-29.3L183-29.3Q182.5-29.3 181.1-27.33 179.7-25.35 177.33-20.23 174.95-15.1 173.45-11.25L173.45-11.25ZM200.46-19.45Q199.76-18.85 198.91-18.85 198.06-18.85 197.56-19.45 197.06-20.05 197.16-20.9L197.16-20.9Q197.31-21.75 198.01-22.35 198.71-22.95 199.56-22.95 200.41-22.95 200.94-22.35 201.46-21.75 201.31-20.9 201.16-20.05 200.46-19.45ZM195.56-1.1L195.56-1.1Q196.51-1.1 197.56-2.05L197.56-2.05Q199.41-3.9 202.26-9.6L202.26-9.6Q202.61-10.35 202.96-10.05L202.96-10.05Q203.06-9.95 203.06-9.73 203.06-9.5 202.66-8.63 202.26-7.75 201.94-7.05 201.61-6.35 200.69-4.78 199.76-3.2 199.01-2.35L199.01-2.35Q196.96 0 195.14 0 193.31 0 192.51-1.1 191.71-2.2 191.71-3.55 191.71-4.9 192.36-6.5L192.36-6.5 195.56-14.65Q195.66-14.95 195.66-15.45 195.66-15.95 195.06-16.75L195.06-16.75 197.81-16.8Q198.96-16.8 199.16-16.38 199.36-15.95 198.86-15.05L198.86-15.05 194.86-5.7Q194.01-3.85 194.01-2.55L194.01-2.55Q194.01-1.1 195.56-1.1ZM213.77-4L213.77-4Q213.77-8.15 217.77-17.9L217.77-17.9 215.17-17.9Q214.92-17.9 214.85-18.18 214.77-18.45 214.9-18.73 215.02-19 215.27-19L215.27-19 218.27-19Q220.07-22.95 221.62-25.6 223.17-28.25 224.47-29.18 225.77-30.1 226.35-30.1 226.92-30.1 227.17-30L227.17-30Q228.32-29.45 228.32-27.73 228.32-26 227.17-23.55 226.02-21.1 224.92-19L224.92-19 227.32-19Q227.57-19 227.65-18.73 227.72-18.45 227.6-18.18 227.47-17.9 227.22-17.9L227.22-17.9 224.32-17.9Q221.57-13.25 217.67-9.65L217.67-9.65 216.52-4.55Q216.37-3.9 216.37-3.28 216.37-2.65 216.72-2 217.07-1.35 217.82-1.35L217.82-1.35Q218.67-1.35 219.72-1.95L219.72-1.95Q222.12-3.75 225.02-9.5L225.02-9.5Q225.22-9.95 225.5-10.05 225.77-10.15 225.82-9.93 225.87-9.7 225.67-9.2L225.67-9.2Q224.02-5.75 223.07-4.3L223.07-4.3Q220.37 0.05 217.32 0.05L217.32 0.05Q215.77 0.05 214.77-1.1 213.77-2.25 213.77-4ZM221.32-19L223.82-19Q227.12-24.9 227.12-27.2L227.12-27.2Q227.12-28.2 226.77-28.2L226.77-28.2Q226.22-28.2 225.1-26.6 223.97-25 221.32-19L221.32-19ZM223.17-17.9L223.17-17.9 220.82-17.9Q220.22-16.5 218.12-11.25L218.12-11.25Q220.82-14.05 223.17-17.9ZM246.83-17.5L246.83-17.5Q250.48-17.5 250.48-12.9L250.48-12.9Q250.48-10.8 249.38-8.4L249.38-8.4Q247.98-5.15 245.18-2.5L245.18-2.5Q245.83-1.25 247.53-1.25L247.53-1.25Q248.88-1.25 250.08-2.6L250.08-2.6Q251.58-4.15 252.23-5.33 252.88-6.5 253.18-7.05 253.48-7.6 253.96-8.63 254.43-9.65 254.53-9.88 254.63-10.1 254.88-10.1L254.88-10.1Q255.38-10.15 255.38-9.75L255.38-9.75Q255.38-9.6 255.28-9.4L255.28-9.4 254.98-8.7Q254.68-8 254.53-7.7 254.38-7.4 254.01-6.63 253.63-5.85 253.36-5.4 253.08-4.95 252.61-4.2 252.13-3.45 251.76-3 251.38-2.55 250.83-2 250.28-1.45 249.78-1.15L249.78-1.15Q248.53-0.4 247.43-0.4L247.43-0.4Q245.38-0.4 244.23-1.7L244.23-1.7Q241.93 0 239.98 0L239.98 0Q236.33 0 236.33-4.6L236.33-4.6Q236.33-6.7 237.43-9.1L237.43-9.1Q238.93-12.6 241.66-15.05 244.38-17.5 246.83-17.5ZM247.38-15.95L247.38-15.95Q246.03-15.95 244.18-14.15 242.33-12.35 240.88-9.25L240.88-9.25Q239.13-5.65 239.13-3.35 239.13-1.05 240.88-1.05L240.88-1.05Q242.13-1.05 243.68-2.4L243.68-2.4Q242.88-3.55 242.88-4.85L242.88-4.85Q242.98-7 244.63-7L244.63-7Q245.28-7 245.71-6.55 246.13-6.1 246.13-5.73 246.13-5.35 246.03-4.95L246.03-4.95Q246.88-6.2 247.98-8.5L247.98-8.5Q249.23-11.05 249.23-13.5 249.23-15.95 247.38-15.95ZM271.44-0.95L271.44-0.95Q272.09-0.85 272.34-0.85L272.34-0.85Q274.34-0.85 276.29-3.2L276.29-3.2Q277.34-4.5 280.04-9.75L280.04-9.75Q280.14-10 280.39-10L280.39-10Q280.84-10.05 280.84-9.65L280.84-9.65Q280.84-9.55 280.62-9.08 280.39-8.6 280.19-8.13 279.99-7.65 279.54-6.75 279.09-5.85 278.77-5.3 278.44-4.75 277.94-3.95 277.44-3.15 276.94-2.7L276.94-2.7 275.89-1.6Q275.04-0.75 273.89-0.4L273.89-0.4Q272.04 0.2 270.29-0.3L270.29-0.3Q269.14 0.2 268.24 0.2L268.24 0.2Q264.69 0.2 263.94-2.6L263.94-2.6Q263.79-3.25 263.79-4.17 263.79-5.1 264.42-5.95 265.04-6.8 265.74-6.85L265.74-6.85Q268.29-11.7 270.09-15.6L270.09-15.6Q272.09-19.85 274.74-19.85L274.74-19.85Q275.44-19.85 276.12-19.53 276.79-19.2 276.62-18.8 276.44-18.4 275.89-18.65 275.34-18.9 274.94-18.9 274.54-18.9 274.24-18.75L274.24-18.75Q272.54-17.95 272.54-15.3L272.54-15.3Q272.54-13.9 272.94-13 273.34-12.1 273.84-11.05L273.84-11.05Q274.99-8.45 274.99-6.8L274.99-6.8Q274.99-5.15 273.94-3.55 272.89-1.95 271.44-0.95ZM269.74-1.3L269.74-1.3Q271.94-3 271.94-6.8L271.94-6.8Q271.94-8.35 271.59-11.05 271.24-13.75 271.24-14.7 271.24-15.65 271.29-16L271.29-16Q267.49-8.4 266.59-6.75L266.59-6.75Q267.64-6.75 267.64-5.25L267.64-5.25Q267.64-2.3 269.74-1.3ZM265.99-2.65L265.99-2.65Q265.99-2.35 266.04-2L266.04-2Q266.44-0.65 267.89-0.65L267.89-0.65Q268.49-0.65 268.89-0.85L268.89-0.85Q267.04-2 266.89-4.6L266.89-4.6Q265.99-3.7 265.99-2.65Z" opacity="1" transform="matrix(1,0,0,1,0,0)" fill="black" class="slogan-text-1" id="SvgjsPath1040" stroke-width="7" stroke="black" stroke-linejoin="round"></path></svg></g></svg></g></svg></g></svg></g></svg></g></svg></g></svg></g></mask><g transform="matrix(1,0,0,1,39.55199999999999,39.36645072894689)"><svg viewBox="0 0 316.416 168.4670985421062" height="168.4670985421062" width="316.416"><g><svg viewBox="0 0 316.416 168.4670985421062" height="168.4670985421062" width="316.416"><g><svg viewBox="0 0 316.416 168.4670985421062" height="168.4670985421062" width="316.416"><g><svg viewBox="0 0 316.416 168.4670985421062" height="168.4670985421062" width="316.416"><g id="textblocktransform"><svg viewBox="0 0 316.416 168.4670985421062" height="168.4670985421062" width="316.416" id="textblock"><g><svg viewBox="0 0 316.416 95.21496609085095" height="95.21496609085095" width="316.416"><g transform="matrix(1,0,0,1,0,0)"><svg width="316.416" viewBox="-1.4000000953674316 -47.599998474121094 235.4199981689453 71.54999923706055" height="95.21496609085095" data-palette-color="#0063db"><path d="M3 0Q2.75 0 2.75-0.5L2.75-0.5Q2.75-1.05 3-1.5 3.25-1.95 3.85-2.55L3.85-2.55Q5-3.6 5.35-4.08 5.7-4.55 5.88-5.33 6.05-6.1 6.5-8.6L6.5-8.6 9.55-26.4Q9.75-27.65 11.28-28.9 12.8-30.15 14-30.15L14-30.15Q14.55-30.15 14.55-29.9L14.55-29.9Q14.55-29.75 14.08-29.05 13.6-28.35 13.35-26.7L13.35-26.7 11.85-17.15Q12.55-17 14.05-17L14.05-17Q16.45-17 18.32-18.13 20.2-19.25 21.25-21.2 22.3-23.15 22.3-25.55L22.3-25.55Q22.3-28.95 20.2-30.73 18.1-32.5 14.2-32.5L14.2-32.5Q11.2-32.5 8.65-31.4 6.1-30.3 4.15-28.1L4.15-28.1Q3.7-27.5 3.45-27.28 3.2-27.05 2.9-27.05L2.9-27.05Q2.6-27.05 2.6-27.4L2.6-27.4 2.65-27.95Q3.1-29.8 4.9-31.48 6.7-33.15 9.55-34.18 12.4-35.2 15.8-35.2L15.8-35.2Q20.55-35.2 23.4-33.08 26.25-30.95 26.25-27.2L26.25-27.2Q26.25-23.9 24.05-21.03 21.85-18.15 18.38-16.32 14.9-14.5 11.2-14.2L11.2-14.2 9.75-5.5Q9.5-4.2 8.8-3.4L8.8-3.4 8.8-3.35Q9.05-3.25 9.55-3.08 10.05-2.9 10.55-2.9L10.55-2.9Q11.15-2.9 11.78-3.18 12.4-3.45 12.6-3.45L12.6-3.45Q12.9-3.45 12.9-3.1L12.9-3.1Q12.9-2.65 12.3-2.05L12.3-2.05Q10.4 0 9.25 0L9.25 0Q8.8 0 7.6-0.4L7.6-0.4Q6-0.85 5.5-0.85L5.5-0.85Q4.75-0.85 3.95-0.43 3.15 0 3 0L3 0ZM30 0.5Q27.75 0.5 26.42-1.23 25.1-2.95 25.1-6L25.1-6Q25.1-9.7 26.87-13.93 28.65-18.15 31.45-20.98 34.25-23.8 37.1-23.8L37.1-23.8Q39.7-23.8 39.7-20.65L39.7-20.65Q39.7-18.1 38.2-15.65 36.7-13.2 34.17-11.33 31.65-9.45 28.65-8.45L28.65-8.45Q28.65-5.75 29.52-4.55 30.4-3.35 32.1-3.35L32.1-3.35Q33.9-3.35 35.4-4.5 36.9-5.65 37.95-7.65L37.95-7.65Q38.1-7.95 38.25-8.15 38.4-8.35 38.65-8.35L38.65-8.35Q39.05-8.35 39.05-7.75L39.05-7.75Q39.05-6.4 37.7-4.4 36.35-2.4 34.25-0.95 32.15 0.5 30 0.5L30 0.5ZM30.25-11.1Q31.55-11.1 33.02-12.03 34.5-12.95 35.5-14.55 36.5-16.15 36.5-18.15L36.5-18.15Q36.5-20.5 34.85-20.5L34.85-20.5Q33.5-20.5 32.27-19.05 31.05-17.6 30.22-15.45 29.4-13.3 29.1-11.3L29.1-11.3Q29.4-11.1 30.25-11.1L30.25-11.1ZM48.09 0.5Q46.59 0.5 46-0.53 45.4-1.55 45.4-3.3L45.4-3.3Q45.4-4.6 45.62-6.08 45.84-7.55 45.9-7.85L45.9-7.85 47.95-20.7 42.9-20.7Q42.65-20.7 42.65-20.95L42.65-20.95Q42.65-21.45 43.75-22.38 44.84-23.3 45.34-23.3L45.34-23.3 48.34-23.3 48.84-26.4Q49.05-28.05 50.4-29.35 51.75-30.65 53.09-30.65L53.09-30.65Q53.34-30.65 53.34-30.4L53.34-30.4Q53.34-30.2 52.9-29.23 52.45-28.25 52.25-27.15L52.25-27.15 51.65-23.3 56.55-23.3Q56.84-23.3 56.84-23L56.84-23Q56.84-22.6 55.67-21.65 54.5-20.7 54.15-20.7L54.15-20.7 51.34-20.7 49.3-7.95Q49.25-7.6 49.02-6.25 48.8-4.9 48.8-4.15L48.8-4.15Q48.8-2.5 49.9-2.5L49.9-2.5Q50.7-2.5 51.59-3.28 52.5-4.05 53.2-5.45L53.2-5.45Q53.25-5.55 53.32-5.65 53.4-5.75 53.5-5.75L53.5-5.75Q53.75-5.75 53.75-5.1L53.75-5.1Q53.75-4.1 52.87-2.75 52-1.4 50.67-0.45 49.34 0.5 48.09 0.5L48.09 0.5ZM75.69 0.5Q73.14 0.5 73.14-4.35L73.14-4.35Q73.14-9 75.17-13.53 77.19-18.05 80.64-20.93 84.09-23.8 88.09-23.8L88.09-23.8Q90.14-23.8 91.64-23.15L91.64-23.15Q90.99-20.6 90.74-19.4L90.74-19.4 89.69-14Q88.29-7.6 87.99-5.15L87.99-5.15Q87.94-4.8 87.94-4.3L87.94-4.3Q87.94-3.2 88.59-3.2L88.59-3.2Q89.39-3.2 90.09-4.23 90.79-5.25 91.69-7.15L91.69-7.15Q91.74-7.2 91.87-7.45 91.99-7.7 92.19-7.7L92.19-7.7Q92.49-7.7 92.49-7.1L92.49-7.1 92.39-6.3Q92.04-4.65 90.97-3.05 89.89-1.45 88.57-0.48 87.24 0.5 86.19 0.5L86.19 0.5Q84.44 0.5 84.44-2.35L84.44-2.35Q84.44-3.45 84.69-4.6L84.69-4.6 85.54-8.95 85.49-8.95Q83.09-4.75 80.37-2.13 77.64 0.5 75.69 0.5L75.69 0.5ZM78.04-3.6Q79.44-3.6 81.27-5.78 83.09-7.95 84.67-11.1 86.24-14.25 86.84-16.75L86.84-16.75 87.64-19.95Q86.14-20.95 84.49-20.95L84.49-20.95Q82.34-20.95 80.57-18.48 78.79-16 77.79-12.48 76.79-8.95 76.79-6.1L76.79-6.1Q76.79-4.85 77.07-4.23 77.34-3.6 78.04-3.6L78.04-3.6ZM98.14 0.5Q95.59 0.5 95.59-4.4L95.59-4.4Q95.59-8.95 97.59-13.48 99.59-18 102.99-20.9 106.39-23.8 110.29-23.8L110.29-23.8 110.79-23.8Q112.44-30.7 113.89-34.2 115.34-37.7 117.74-40L117.74-40Q119.34-41.5 120.64-42.05 121.94-42.6 124.19-43.05L124.19-43.05Q125.19-43.25 125.61-43.43 126.04-43.6 126.19-43.6L126.19-43.6Q126.54-43.6 126.54-43.2L126.54-43.2Q126.54-42.55 125.59-41.75L125.59-41.75Q125.09-41.3 124.66-41.15 124.24-41 123.84-40.95 123.44-40.9 123.24-40.85L123.24-40.85Q120.64-40.5 118.84-38.25L118.84-38.25Q117.49-36.5 116.46-33.25 115.44-30 113.69-21.9L113.69-21.9Q110.79-7.9 110.44-5.15L110.44-5.15Q110.39-4.8 110.39-4.3L110.39-4.3Q110.39-3.2 111.04-3.2L111.04-3.2Q111.84-3.2 112.56-4.28 113.29-5.35 114.09-7.15L114.09-7.15Q114.39-7.7 114.64-7.7L114.64-7.7Q114.94-7.7 114.94-7.15L114.94-7.15 114.84-6.3Q114.44-4.55 113.36-2.98 112.29-1.4 110.96-0.45 109.64 0.5 108.54 0.5L108.54 0.5Q106.94 0.5 106.94-2.15L106.94-2.15Q106.94-3.15 107.14-4.55L107.14-4.55 107.99-8.95 107.94-8.95Q106.09-5.75 103.24-2.63 100.39 0.5 98.14 0.5L98.14 0.5ZM100.49-3.6Q101.89-3.6 103.71-5.78 105.54-7.95 107.11-11.1 108.69-14.25 109.29-16.75L109.29-16.75 110.09-19.95Q108.59-20.95 106.94-20.95L106.94-20.95Q104.79-20.95 103.01-18.48 101.24-16 100.24-12.48 99.24-8.95 99.24-6.1L99.24-6.1Q99.24-4.85 99.51-4.23 99.79-3.6 100.49-3.6L100.49-3.6ZM122.54 0.5Q120.44 0.5 119.36-1.13 118.29-2.75 118.29-5.65L118.29-5.65Q118.29-9.7 120.24-13.95 122.19-18.2 125.06-21 127.94-23.8 130.54-23.8L130.54-23.8Q132.49-23.8 133.54-22.08 134.59-20.35 134.59-17.55L134.59-17.55Q134.59-13.8 132.76-9.55 130.94-5.3 128.14-2.4 125.34 0.5 122.54 0.5L122.54 0.5ZM124.99-2.8Q126.64-2.8 127.99-4.48 129.34-6.15 130.14-8.93 130.94-11.7 130.94-14.8L130.94-14.8Q130.94-20.5 127.99-20.5L127.99-20.5Q126.14-20.5 124.76-18.5 123.39-16.5 122.66-13.63 121.94-10.75 121.94-8.25L121.94-8.25Q121.94-5.85 122.66-4.33 123.39-2.8 124.99-2.8L124.99-2.8ZM129.68 19.95Q126.98 19.95 124.83 18.53 122.68 17.1 121.83 14.55L121.83 14.55Q121.73 14.15 121.73 13.9L121.73 13.9Q121.73 12.95 122.41 12.08 123.08 11.2 123.93 10.85L123.93 10.85 124.33 10.75Q124.53 10.75 124.58 11 124.63 11.25 124.63 11.3L124.63 11.3Q125.03 14.45 126.66 16.1 128.28 17.75 130.98 17.75L130.98 17.75Q134.08 17.75 135.98 14.83 137.88 11.9 138.83 5.65L138.83 5.65 142.33-16.85Q142.63-18.65 142.63-19.4L142.63-19.4Q142.63-20.15 142.23-20.15L142.23-20.15Q141.78-20.15 141.08-19.4 140.38-18.65 139.78-17.65L139.78-17.65Q139.58-17.35 139.33-16.93 139.08-16.5 138.93-16.38 138.78-16.25 138.63-16.25L138.63-16.25Q138.33-16.25 138.33-16.8L138.33-16.8Q138.33-17.7 139.43-19.43 140.53-21.15 142.01-22.48 143.48-23.8 144.58-23.8L144.58-23.8Q145.48-23.8 145.91-23.13 146.33-22.45 146.23-21.35L146.23-21.35Q146.08-19.85 145.58-16.85L145.58-16.85Q145.28-15.15 145.18-14.5L145.18-14.5 145.23-14.5Q147.18-18.05 149.91-20.93 152.63-23.8 154.63-23.8L154.63-23.8Q156.08-23.8 156.63-22.35 157.18-20.9 157.18-17.75L157.18-17.75Q157.18-13.45 155.23-9.18 153.28-4.9 150.21-2.2 147.13 0.5 143.88 0.5L143.88 0.5Q143.43 0.5 143.03 0.35L143.03 0.35 142.18 5.35Q141.43 9.65 139.66 12.98 137.88 16.3 135.31 18.13 132.73 19.95 129.68 19.95L129.68 19.95ZM146.78-2.5Q148.68-2.5 150.23-4.78 151.78-7.05 152.66-10.38 153.53-13.7 153.53-16.6L153.53-16.6Q153.53-18.25 153.28-18.98 153.03-19.7 152.48-19.7L152.48-19.7Q151.13-19.7 149.28-17.6 147.43-15.5 145.93-12.4 144.43-9.3 144.03-6.5L144.03-6.5 143.53-3.4Q144.33-2.9 145.08-2.7 145.83-2.5 146.78-2.5L146.78-2.5ZM165.58 0.5Q164.08 0.5 163.48-0.53 162.88-1.55 162.88-3.3L162.88-3.3Q162.88-4.6 163.11-6.08 163.33-7.55 163.38-7.85L163.38-7.85 165.43-20.7 160.38-20.7Q160.13-20.7 160.13-20.95L160.13-20.95Q160.13-21.45 161.23-22.38 162.33-23.3 162.83-23.3L162.83-23.3 165.83-23.3 166.33-26.4Q166.53-28.05 167.88-29.35 169.23-30.65 170.58-30.65L170.58-30.65Q170.83-30.65 170.83-30.4L170.83-30.4Q170.83-30.2 170.38-29.23 169.93-28.25 169.73-27.15L169.73-27.15 169.13-23.3 174.03-23.3Q174.33-23.3 174.33-23L174.33-23Q174.33-22.6 173.16-21.65 171.98-20.7 171.63-20.7L171.63-20.7 168.83-20.7 166.78-7.95Q166.73-7.6 166.51-6.25 166.28-4.9 166.28-4.15L166.28-4.15Q166.28-2.5 167.38-2.5L167.38-2.5Q168.18-2.5 169.08-3.28 169.98-4.05 170.68-5.45L170.68-5.45Q170.73-5.55 170.81-5.65 170.88-5.75 170.98-5.75L170.98-5.75Q171.23-5.75 171.23-5.1L171.23-5.1Q171.23-4.1 170.36-2.75 169.48-1.4 168.16-0.45 166.83 0.5 165.58 0.5L165.58 0.5ZM182.28-26.65Q181.78-26.65 181.83-27.15L181.83-27.15 182.43-30.65Q182.68-32.1 183.5-32.88 184.33-33.65 185.58-33.65L185.58-33.65 185.78-33.65Q186.08-33.65 186.15-33.55 186.23-33.45 186.18-33.15L186.18-33.15 185.63-29.7Q185.43-28.3 184.58-27.48 183.73-26.65 182.48-26.65L182.48-26.65 182.28-26.65ZM179.33 0.5Q177.73 0.5 177.73-1.8L177.73-1.8Q177.73-2.95 178.03-4.45L178.03-4.45 180.43-17.8Q180.63-19.1 180.63-19.4L180.63-19.4Q180.63-20.15 180.18-20.15L180.18-20.15Q179.58-20.15 178.73-19.2 177.88-18.25 176.88-16.2L176.88-16.2Q176.68-15.6 176.38-15.6L176.38-15.6Q176.08-15.6 176.08-16.1L176.08-16.1Q176.08-17.3 177.15-19.18 178.23-21.05 179.8-22.43 181.38-23.8 182.73-23.8L182.73-23.8Q184.28-23.8 184.28-21.6L184.28-21.6Q184.28-20.55 183.98-18.85L183.98-18.85 181.38-4.4 181.28-3.75Q181.28-3.2 181.73-3.2L181.73-3.2Q182.33-3.2 183.18-4.17 184.03-5.15 185.03-7.15L185.03-7.15Q185.28-7.7 185.53-7.7L185.53-7.7Q185.83-7.7 185.83-7.05L185.83-7.05Q185.83-5.9 184.75-4.08 183.68-2.25 182.13-0.88 180.58 0.5 179.33 0.5L179.33 0.5ZM193.63 0.5Q191.53 0.5 190.45-1.13 189.38-2.75 189.38-5.65L189.38-5.65Q189.38-9.7 191.33-13.95 193.28-18.2 196.15-21 199.03-23.8 201.63-23.8L201.63-23.8Q203.58-23.8 204.63-22.08 205.68-20.35 205.68-17.55L205.68-17.55Q205.68-13.8 203.85-9.55 202.03-5.3 199.23-2.4 196.43 0.5 193.63 0.5L193.63 0.5ZM196.08-2.8Q197.73-2.8 199.08-4.48 200.43-6.15 201.23-8.93 202.03-11.7 202.03-14.8L202.03-14.8Q202.03-20.5 199.08-20.5L199.08-20.5Q197.23-20.5 195.85-18.5 194.48-16.5 193.75-13.63 193.03-10.75 193.03-8.25L193.03-8.25Q193.03-5.85 193.75-4.33 194.48-2.8 196.08-2.8L196.08-2.8ZM210.37 0.5Q209.92 0.5 209.92 0.2L209.92 0.2Q209.92 0 210.15-0.68 210.37-1.35 210.77-3L210.77-3Q211.77-7.15 213.17-16.85L213.17-16.85Q213.47-18.75 213.47-19.5L213.47-19.5Q213.47-20.15 213.17-20.15L213.17-20.15Q212.32-20.15 210.62-17.15L210.62-17.15Q210.37-16.7 210.17-16.38 209.97-16.05 209.85-15.9 209.72-15.75 209.57-15.75L209.57-15.75Q209.17-15.75 209.17-16.25L209.17-16.25Q209.17-17.25 210.27-19.1 211.37-20.95 212.87-22.38 214.37-23.8 215.57-23.8L215.57-23.8Q216.37-23.8 216.72-23.1 217.07-22.4 217.07-21.35L217.07-21.35Q217.07-19.7 216.27-14.9L216.27-14.9 216.32-14.9Q218.62-18.95 221.37-21.38 224.12-23.8 226.12-23.8L226.12-23.8Q228.22-23.8 228.22-20.85L228.22-20.85Q228.22-19.75 227.77-17.15L227.77-17.15 226.62-11.15Q225.37-4.8 225.37-3.95L225.37-3.95Q225.37-3.6 225.55-3.33 225.72-3.05 226.12-3.05L226.12-3.05Q227.47-3.05 229.22-7.15L229.22-7.15Q229.37-7.7 229.72-7.7L229.72-7.7Q230.02-7.7 230.02-7.1L230.02-7.1Q230.02-6.65 229.97-6.3L229.97-6.3Q229.62-4.5 228.52-2.93 227.42-1.35 226.07-0.43 224.72 0.5 223.62 0.5L223.62 0.5Q222.57 0.5 222.2-0.38 221.82-1.25 221.82-2.3L221.82-2.3Q221.82-4.55 223.07-10.4L223.07-10.4Q224.27-16.1 224.37-18.3L224.37-18.3Q224.42-19.2 224.25-19.58 224.07-19.95 223.42-19.95L223.42-19.95Q221.87-19.95 220.1-17.9 218.32-15.85 216.92-12.88 215.52-9.9 215.07-7.45L215.07-7.45 214.27-3.1Q213.97-1.8 212.67-0.65 211.37 0.5 210.37 0.5L210.37 0.5Z" opacity="1" transform="matrix(1,0,0,1,0,0)" fill="#0063db" class="wordmark-text-0" data-fill-palette-color="primary" id="text-0"></path></svg></g></svg></g><g transform="matrix(1,0,0,1,3.5,115.462661167826)"><svg viewBox="0 0 309.416 53.004437374280236" height="53.004437374280236" width="309.416"><g transform="matrix(1,0,0,1,0,0)"><svg width="309.416" viewBox="-3.099999964237213 -42.650001525878906 287.94000244140625 49.85000228881836" height="53.004437374280236" data-palette-color="#0063db"><path d="M33.2-22.25L33.2-22.25Q34.35-22.25 34.35-20.8L34.35-20.8Q34.35-19.25 33.1-17.9L33.1-17.9Q30.9-15.45 29.05-11.75L29.05-11.75Q26.25-6.15 26.25-1.65L26.25-1.65Q26.25 0.1 26.88 0.9 27.5 1.7 28.3 1.7L28.3 1.7Q30.7 1.7 33.9-2.2L33.9-2.2Q36.75-5.85 38.25-9.3L38.25-9.3Q38.65-10.1 39.05-10 39.45-9.9 39.1-9.1L39.1-9.1Q37.05-4.55 34.45-1.1L34.45-1.1Q33.1 0.75 31.1 1.98 29.1 3.2 27.13 3.2 25.15 3.2 24.15 1.63 23.15 0.05 23.15-2.1 23.15-4.25 23.68-6.35 24.2-8.45 25.05-9.6L25.05-9.6Q20-3.55 14.3 0.1L14.3 0.1Q11.3 1.95 7.65 2.3L7.65 2.3Q7.3 2.35 6.48 2.35 5.65 2.35 4.5 1.75L4.5 1.75Q0.9 0.25 0.9-5.58 0.9-11.4 4.7-18.2L4.7-18.2Q6.7-21.8 9.1-24.55L9.1-24.55Q5.75-26.15 4.1-28L4.1-28Q2.9-29.35 2.9-31.25 2.9-33.15 3.65-33.65L3.65-33.65Q4.15-34.3 4.55-33.9L4.55-33.9Q4.85-33.45 4.58-32.8 4.3-32.15 4.3-31.55L4.3-31.55Q4.3-30.2 5.75-28.55 7.2-26.9 10-25.6L10-25.6Q21.75-38.65 34.4-38.65L34.4-38.65Q38.35-38.65 40.68-36.88 43-35.1 43-32.3L43-32.3Q43-29.25 39.6-26.4L39.6-26.4Q37.9-24.9 34.75-23.8L34.75-23.8Q29.95-22.1 23.33-22.1 16.7-22.1 12.35-23.5L12.35-23.5Q7.3-16.35 5.4-11.63 3.5-6.9 3.5-4.3L3.5-4.3Q3.5-3.75 3.55-3.3L3.55-3.3Q4.15 0.85 7.75 0.85L7.75 0.85Q11.8 0.85 17.15-3.55L17.15-3.55Q20.95-6.75 24.6-11.15 28.25-15.55 30.03-18.9 31.8-22.25 33.2-22.25ZM40.95-32.9L40.95-32.9Q40.95-35.05 39.18-36.2 37.4-37.35 34.3-37.35 31.2-37.35 28.13-36.35 25.05-35.35 22.38-33.4 19.7-31.45 17.63-29.4 15.55-27.35 13.15-24.5L13.15-24.5Q16.9-23.3 22.35-23.3L22.35-23.3Q32.6-23.3 37.3-26.6L37.3-26.6Q40.95-29.15 40.95-32.9ZM66.26-16.4L66.26-16.4Q60.11-5.6 60.11-2.3L60.11-2.3Q60.11-1 61.06-1L61.06-1Q63.61-1 67.91-9.65L67.91-9.65Q68.21-10.35 68.51-10.2 68.81-10.05 68.81-9.8 68.81-9.55 68.61-9.2L68.61-9.2Q65.96-3.85 64.14-1.83 62.31 0.2 60.49 0.2 58.66 0.2 57.71-1.2L57.71-1.2Q57.21-1.85 57.21-2.98 57.21-4.1 57.71-5.7 58.21-7.3 60.46-10.9L60.46-10.9Q61.01-11.8 61.01-12.33 61.01-12.85 60.16-12.85 59.31-12.85 56.91-10.6L56.91-10.6Q53.31-7.3 49.96-0.7L49.96-0.7Q49.66-0.2 49.29-0.08 48.91 0.05 47.81 0.1 46.71 0.15 46.36 0.35L46.36 0.35Q47.16-1.25 49.51-6.2L49.51-6.2Q53.71-14.95 55.01-16.2L55.01-16.2Q55.61-16.8 56.66-16.8L56.66-16.8Q56.86-16.8 57.69-16.65 58.51-16.5 58.91-16.6L58.91-16.6Q57.06-15.6 52.86-7.2L52.86-7.2Q55.21-10.1 57.14-11.83 59.06-13.55 61.76-15.03 64.46-16.5 65.71-16.5L65.71-16.5Q66.01-16.5 66.26-16.4ZM87.47-19.45Q86.77-18.85 85.92-18.85 85.07-18.85 84.57-19.45 84.07-20.05 84.17-20.9L84.17-20.9Q84.32-21.75 85.02-22.35 85.72-22.95 86.57-22.95 87.42-22.95 87.95-22.35 88.47-21.75 88.32-20.9 88.17-20.05 87.47-19.45ZM82.57-1.1L82.57-1.1Q83.52-1.1 84.57-2.05L84.57-2.05Q86.42-3.9 89.27-9.6L89.27-9.6Q89.62-10.35 89.97-10.05L89.97-10.05Q90.07-9.95 90.07-9.73 90.07-9.5 89.67-8.63 89.27-7.75 88.95-7.05 88.62-6.35 87.7-4.78 86.77-3.2 86.02-2.35L86.02-2.35Q83.97 0 82.15 0 80.32 0 79.52-1.1 78.72-2.2 78.72-3.55 78.72-4.9 79.37-6.5L79.37-6.5 82.57-14.65Q82.67-14.95 82.67-15.45 82.67-15.95 82.07-16.75L82.07-16.75 84.82-16.8Q85.97-16.8 86.17-16.38 86.37-15.95 85.87-15.05L85.87-15.05 81.87-5.7Q81.02-3.85 81.02-2.55L81.02-2.55Q81.02-1.1 82.57-1.1ZM125.68-16.4L125.68-16.4Q119.58-5.55 119.58-2.4L119.58-2.4Q119.58-1 120.53-1L120.53-1Q121.73-1 123.28-2.8L123.28-2.8Q125.63-5.65 127.38-9.65L127.38-9.65Q127.68-10.35 127.98-10.2 128.28-10.05 128.28-9.8 128.28-9.55 127.78-8.55 127.28-7.55 126.98-6.95 126.68-6.35 125.66-4.65 124.63-2.95 123.91-2.15 123.18-1.35 122.06-0.58 120.93 0.2 119.51 0.2 118.08 0.2 117.08-1.2L117.08-1.2Q116.63-1.85 116.63-2.98 116.63-4.1 117.13-5.7 117.63-7.3 119.88-10.9L119.88-10.9Q120.43-11.8 120.43-12.33 120.43-12.85 119.61-12.85 118.78-12.85 116.63-10.85 114.48-8.85 112.11-5.45 109.73-2.05 109.28 0L109.28 0Q108.43 0 108.03-0.7 107.63-1.4 107.63-1.9L107.63-1.9Q107.63-3.95 110.38-9.7L110.38-9.7Q111.28-11.6 111.33-12.28 111.38-12.95 111.16-12.98 110.93-13 110.53-12.8L110.53-12.8Q109.63-12.35 107.78-10.6L107.78-10.6Q104.28-7.4 100.88-0.85L100.88-0.85Q100.63-0.3 100.26-0.18 99.88-0.05 98.78 0 97.68 0.05 97.33 0.25L97.33 0.25Q98.23-1.5 100.48-6.3L100.48-6.3Q104.53-14.9 105.88-16.2L105.88-16.2Q106.48-16.8 107.53-16.8L107.53-16.8Q107.73-16.8 108.56-16.65 109.38-16.5 109.78-16.6L109.78-16.6Q107.93-15.6 103.73-7.2L103.73-7.2Q106.08-10.1 107.11-11 108.13-11.9 108.63-12.35 109.13-12.8 109.41-13.05 109.68-13.3 110.21-13.78 110.73-14.25 111.01-14.48 111.28-14.7 111.78-15.1 112.28-15.5 112.56-15.63 112.83-15.75 113.31-16.05 113.78-16.35 114.01-16.35 114.23-16.35 114.63-16.48 115.03-16.6 115.18-16.4L115.18-16.4Q116.18-16 116.18-15.15L116.18-15.15Q116.18-14.4 114.48-11.3 112.78-8.2 112.28-7.2L112.28-7.2Q114.48-9.95 116.48-11.73 118.48-13.5 121.21-15 123.93-16.5 125.18-16.5L125.18-16.5Q125.48-16.5 125.68-16.4ZM155.29-13.55Q154.39-12.65 152.74-9.47 151.09-6.3 150.77-4.73 150.44-3.15 150.44-2.18 150.44-1.2 151.19-1.2L151.19-1.2Q152.14-1.2 153.54-2.95L153.54-2.95Q155.59-5.5 157.59-9.6L157.59-9.6Q157.79-10.05 158.04-10.1L158.04-10.1Q158.44-10.25 158.44-9.8L158.44-9.8Q158.44-9.55 158.29-9.2L158.29-9.2Q153.69 0.1 150.54 0.1L150.54 0.1Q149.09 0.1 148.19-1.3L148.19-1.3Q147.74-2.05 147.74-3.3 147.74-4.55 148.24-6.35L148.24-6.35Q144.24 0.1 141.34 0.1L141.34 0.1Q140.54 0.1 139.89-0.4L139.89-0.4Q138.39-1.45 138.39-4L138.39-4Q138.39-8.9 142.64-13.95L142.64-13.95Q145.04-16.75 148.54-17.6L148.54-17.6Q149.49-17.85 150.34-17.85L150.34-17.85Q152.64-17.85 154.24-16.25L154.24-16.25Q154.74-15.7 154.54-15.2 154.34-14.7 153.69-14.8L153.69-14.8Q153.14-16.6 151.29-16.6L151.29-16.6Q149.14-16.6 145.99-13.2L145.99-13.2Q144.19-11.2 142.64-8.5L142.64-8.5Q140.69-5.25 140.69-3.3 140.69-1.35 141.94-1.35L141.94-1.35Q144.94-1.35 149.79-10.55L149.79-10.55Q150.74-12.4 151.39-13.08 152.04-13.75 153.04-13.75L153.04-13.75Q153.24-13.75 154.07-13.6 154.89-13.45 155.29-13.55L155.29-13.55ZM173.05-9.65Q173-9.45 172.6-8.28 172.2-7.1 171.93-6.03 171.65-4.95 171.65-3.88 171.65-2.8 172.15-1.88 172.65-0.95 173.75-0.95L173.75-0.95Q175.55-0.95 177.25-3.38 178.95-5.8 180.85-9.55L180.85-9.55Q181.25-10.25 181.6-10.1L181.6-10.1Q181.85-9.9 181.7-9.58 181.55-9.25 181.08-8.18 180.6-7.1 180.38-6.68 180.15-6.25 179.58-5.18 179-4.1 178.58-3.58 178.15-3.05 177.43-2.23 176.7-1.4 176.05-1L176.05-1Q174.3 0.1 172.75 0.1 171.2 0.1 170.35-0.58 169.5-1.25 169.33-2.02 169.15-2.8 169.15-3.4 169.15-4 169.2-4.95L169.2-4.95Q169.35-6.55 169.83-8.05 170.3-9.55 170.35-9.75L170.35-9.75Q171.5-13.9 173.63-18.8 175.75-23.7 177.23-26.18 178.7-28.65 179.55-29.55L179.55-29.55Q181.25-31.35 182.9-31.35L182.9-31.35Q184.05-31.35 184.45-29.7L184.45-29.7Q184.5-29.4 184.5-28.95L184.5-28.95Q184.5-27.25 183.3-24.65L183.3-24.65Q179-15.1 173.05-9.65L173.05-9.65ZM173.45-11.25Q176-13.85 178.5-17.8 181-21.75 182.18-24.53 183.35-27.3 183.35-28.3 183.35-29.3 183-29.3L183-29.3Q182.5-29.3 181.1-27.33 179.7-25.35 177.33-20.23 174.95-15.1 173.45-11.25L173.45-11.25ZM200.46-19.45Q199.76-18.85 198.91-18.85 198.06-18.85 197.56-19.45 197.06-20.05 197.16-20.9L197.16-20.9Q197.31-21.75 198.01-22.35 198.71-22.95 199.56-22.95 200.41-22.95 200.94-22.35 201.46-21.75 201.31-20.9 201.16-20.05 200.46-19.45ZM195.56-1.1L195.56-1.1Q196.51-1.1 197.56-2.05L197.56-2.05Q199.41-3.9 202.26-9.6L202.26-9.6Q202.61-10.35 202.96-10.05L202.96-10.05Q203.06-9.95 203.06-9.73 203.06-9.5 202.66-8.63 202.26-7.75 201.94-7.05 201.61-6.35 200.69-4.78 199.76-3.2 199.01-2.35L199.01-2.35Q196.96 0 195.14 0 193.31 0 192.51-1.1 191.71-2.2 191.71-3.55 191.71-4.9 192.36-6.5L192.36-6.5 195.56-14.65Q195.66-14.95 195.66-15.45 195.66-15.95 195.06-16.75L195.06-16.75 197.81-16.8Q198.96-16.8 199.16-16.38 199.36-15.95 198.86-15.05L198.86-15.05 194.86-5.7Q194.01-3.85 194.01-2.55L194.01-2.55Q194.01-1.1 195.56-1.1ZM213.77-4L213.77-4Q213.77-8.15 217.77-17.9L217.77-17.9 215.17-17.9Q214.92-17.9 214.85-18.18 214.77-18.45 214.9-18.73 215.02-19 215.27-19L215.27-19 218.27-19Q220.07-22.95 221.62-25.6 223.17-28.25 224.47-29.18 225.77-30.1 226.35-30.1 226.92-30.1 227.17-30L227.17-30Q228.32-29.45 228.32-27.73 228.32-26 227.17-23.55 226.02-21.1 224.92-19L224.92-19 227.32-19Q227.57-19 227.65-18.73 227.72-18.45 227.6-18.18 227.47-17.9 227.22-17.9L227.22-17.9 224.32-17.9Q221.57-13.25 217.67-9.65L217.67-9.65 216.52-4.55Q216.37-3.9 216.37-3.28 216.37-2.65 216.72-2 217.07-1.35 217.82-1.35L217.82-1.35Q218.67-1.35 219.72-1.95L219.72-1.95Q222.12-3.75 225.02-9.5L225.02-9.5Q225.22-9.95 225.5-10.05 225.77-10.15 225.82-9.93 225.87-9.7 225.67-9.2L225.67-9.2Q224.02-5.75 223.07-4.3L223.07-4.3Q220.37 0.05 217.32 0.05L217.32 0.05Q215.77 0.05 214.77-1.1 213.77-2.25 213.77-4ZM221.32-19L223.82-19Q227.12-24.9 227.12-27.2L227.12-27.2Q227.12-28.2 226.77-28.2L226.77-28.2Q226.22-28.2 225.1-26.6 223.97-25 221.32-19L221.32-19ZM223.17-17.9L223.17-17.9 220.82-17.9Q220.22-16.5 218.12-11.25L218.12-11.25Q220.82-14.05 223.17-17.9ZM246.83-17.5L246.83-17.5Q250.48-17.5 250.48-12.9L250.48-12.9Q250.48-10.8 249.38-8.4L249.38-8.4Q247.98-5.15 245.18-2.5L245.18-2.5Q245.83-1.25 247.53-1.25L247.53-1.25Q248.88-1.25 250.08-2.6L250.08-2.6Q251.58-4.15 252.23-5.33 252.88-6.5 253.18-7.05 253.48-7.6 253.96-8.63 254.43-9.65 254.53-9.88 254.63-10.1 254.88-10.1L254.88-10.1Q255.38-10.15 255.38-9.75L255.38-9.75Q255.38-9.6 255.28-9.4L255.28-9.4 254.98-8.7Q254.68-8 254.53-7.7 254.38-7.4 254.01-6.63 253.63-5.85 253.36-5.4 253.08-4.95 252.61-4.2 252.13-3.45 251.76-3 251.38-2.55 250.83-2 250.28-1.45 249.78-1.15L249.78-1.15Q248.53-0.4 247.43-0.4L247.43-0.4Q245.38-0.4 244.23-1.7L244.23-1.7Q241.93 0 239.98 0L239.98 0Q236.33 0 236.33-4.6L236.33-4.6Q236.33-6.7 237.43-9.1L237.43-9.1Q238.93-12.6 241.66-15.05 244.38-17.5 246.83-17.5ZM247.38-15.95L247.38-15.95Q246.03-15.95 244.18-14.15 242.33-12.35 240.88-9.25L240.88-9.25Q239.13-5.65 239.13-3.35 239.13-1.05 240.88-1.05L240.88-1.05Q242.13-1.05 243.68-2.4L243.68-2.4Q242.88-3.55 242.88-4.85L242.88-4.85Q242.98-7 244.63-7L244.63-7Q245.28-7 245.71-6.55 246.13-6.1 246.13-5.73 246.13-5.35 246.03-4.95L246.03-4.95Q246.88-6.2 247.98-8.5L247.98-8.5Q249.23-11.05 249.23-13.5 249.23-15.95 247.38-15.95ZM271.44-0.95L271.44-0.95Q272.09-0.85 272.34-0.85L272.34-0.85Q274.34-0.85 276.29-3.2L276.29-3.2Q277.34-4.5 280.04-9.75L280.04-9.75Q280.14-10 280.39-10L280.39-10Q280.84-10.05 280.84-9.65L280.84-9.65Q280.84-9.55 280.62-9.08 280.39-8.6 280.19-8.13 279.99-7.65 279.54-6.75 279.09-5.85 278.77-5.3 278.44-4.75 277.94-3.95 277.44-3.15 276.94-2.7L276.94-2.7 275.89-1.6Q275.04-0.75 273.89-0.4L273.89-0.4Q272.04 0.2 270.29-0.3L270.29-0.3Q269.14 0.2 268.24 0.2L268.24 0.2Q264.69 0.2 263.94-2.6L263.94-2.6Q263.79-3.25 263.79-4.17 263.79-5.1 264.42-5.95 265.04-6.8 265.74-6.85L265.74-6.85Q268.29-11.7 270.09-15.6L270.09-15.6Q272.09-19.85 274.74-19.85L274.74-19.85Q275.44-19.85 276.12-19.53 276.79-19.2 276.62-18.8 276.44-18.4 275.89-18.65 275.34-18.9 274.94-18.9 274.54-18.9 274.24-18.75L274.24-18.75Q272.54-17.95 272.54-15.3L272.54-15.3Q272.54-13.9 272.94-13 273.34-12.1 273.84-11.05L273.84-11.05Q274.99-8.45 274.99-6.8L274.99-6.8Q274.99-5.15 273.94-3.55 272.89-1.95 271.44-0.95ZM269.74-1.3L269.74-1.3Q271.94-3 271.94-6.8L271.94-6.8Q271.94-8.35 271.59-11.05 271.24-13.75 271.24-14.7 271.24-15.65 271.29-16L271.29-16Q267.49-8.4 266.59-6.75L266.59-6.75Q267.64-6.75 267.64-5.25L267.64-5.25Q267.64-2.3 269.74-1.3ZM265.99-2.65L265.99-2.65Q265.99-2.35 266.04-2L266.04-2Q266.44-0.65 267.89-0.65L267.89-0.65Q268.49-0.65 268.89-0.85L268.89-0.85Q267.04-2 266.89-4.6L266.89-4.6Q265.99-3.7 265.99-2.65Z" opacity="1" transform="matrix(1,0,0,1,0,0)" fill="#0063db" class="slogan-text-1" data-fill-palette-color="secondary" id="text-1"></path></svg></g></svg></g></svg></g></svg></g></svg></g></svg></g></svg></g><g mask="url(#0fa96375-4c6b-4187-87f5-d79a3246b63a)"><g transform="matrix(3.0649649242600523, 0, 0, 3.0649649242600523, 75.46483156396984, 1)"><svg xmlns="http://www.w3.org/2000/svg" xmlns:xlink="http://www.w3.org/1999/xlink" version="1.1" x="0" y="0" viewBox="10.125 9.99908447265625 79.802001953125 80.00091552734375" style="enable-background:new 0 0 100 100;" xml:space="preserve" height="80.00091552734375" width="79.802001953125" class="icon-none" data-fill-palette-color="accent" id="none"><path d="M24.345 64.261C24.345 78.454 35.891 90 50.083 90s25.739-11.546 25.739-25.739S64.275 38.522 50.083 38.522 24.345 50.069 24.345 64.261zM73.822 64.261C73.822 77.351 63.173 88 50.083 88c-13.089 0-23.738-10.649-23.738-23.739s10.649-23.739 23.738-23.739C63.173 40.522 73.822 51.171 73.822 64.261z" fill="#d90000" data-fill-palette-color="accent"></path><path d="M19.885 29.763c-5.382 0-9.76 4.378-9.76 9.76s4.378 9.76 9.76 9.76 9.76-4.378 9.76-9.76S25.267 29.763 19.885 29.763zM19.885 47.282c-4.278 0-7.76-3.481-7.76-7.76s3.481-7.76 7.76-7.76 7.76 3.481 7.76 7.76S24.163 47.282 19.885 47.282z" fill="#d90000" data-fill-palette-color="accent"></path><path d="M80.638 49.282c5.122 0 9.289-4.167 9.289-9.289s-4.167-9.289-9.289-9.289c-5.121 0-9.288 4.167-9.288 9.289S75.517 49.282 80.638 49.282zM80.638 32.705c4.02 0 7.289 3.27 7.289 7.289s-3.27 7.289-7.289 7.289c-4.019 0-7.288-3.27-7.288-7.289S76.619 32.705 80.638 32.705z" fill="#d90000" data-fill-palette-color="accent"></path><path d="M43.776 12.444c-2.208-1.947-4.857-2.774-7.474-2.326-5.304 0.91-8.719 6.898-7.612 13.348 0 0 0 0 0 0 1.012 5.893 5.452 10.164 10.256 10.164 0.454 0 0.912-0.038 1.37-0.117 5.304-0.91 8.719-6.898 7.612-13.348C47.399 17.08 45.925 14.337 43.776 12.444zM39.979 31.542c-4.21 0.72-8.396-3.051-9.317-8.415v0c-0.92-5.364 1.763-10.315 5.979-11.039 1.996-0.339 4.065 0.315 5.813 1.854 1.807 1.593 3.052 3.923 3.504 6.56C46.878 25.867 44.195 30.819 39.979 31.542z" fill="#d90000" data-fill-palette-color="accent"></path><path d="M67.324 10.464c-2.532-0.772-5.27-0.288-7.707 1.365-2.37 1.608-4.179 4.143-5.092 7.137-0.915 2.994-0.83 6.107 0.238 8.765 1.098 2.732 3.098 4.663 5.631 5.437 0.787 0.24 1.594 0.359 2.405 0.359 1.8 0 3.622-0.584 5.302-1.724 2.37-1.608 4.179-4.143 5.092-7.137 0.915-2.994 0.83-6.107-0.238-8.765C71.856 13.168 69.857 11.238 67.324 10.464zM71.281 24.082c-0.781 2.559-2.31 4.713-4.303 6.066-1.927 1.307-4.058 1.701-6 1.107-1.943-0.593-3.491-2.109-4.359-4.27-0.898-2.235-0.963-4.875-0.182-7.435s2.31-4.713 4.303-6.066c1.341-0.91 2.78-1.376 4.187-1.376 0.614 0 1.223 0.089 1.813 0.27 1.943 0.593 3.491 2.109 4.359 4.27C71.998 18.882 72.062 21.522 71.281 24.082z" fill="#d90000" data-fill-palette-color="accent"></path></svg></g></g></svg></g><defs></defs></svg><rect width="395.52" height="247.2" fill="none" stroke="none" visibility="hidden"></rect></g></svg>