<svg width="218.00999603271487" height="41.13515469814616" viewBox="0 0 399.90767720994756 75.4564674389469" class="css-1j8o68f"><defs id="SvgjsDefs5710"></defs><g id="SvgjsG5711" featurekey="sloganFeature-0" transform="matrix(1.2424814425430468,0,0,1.2424814425430468,34.90060128315971,50.48259056232392)" fill="#ff7f5b"><path d="M8.72 17.52 l-4.5 0 l-0.88 2.48 l-3.26 0 l4.9 -12.24 l3 0 l4.9 12.24 l-3.28 0 z M5.2 14.74 l2.54 0 l-1.26 -3.56 z M21.588 20 l-4.3 0 l0 -12.24 l4.3 0 c3.74 0 6.3 2.44 6.3 6.12 c0 3.78 -2.7 6.12 -6.3 6.12 z M20.288 10.54 l0 6.68 l1.3 0 c2.12 0 3.3 -1.34 3.3 -3.34 c0 -0.46 -0.06 -0.88 -0.18 -1.3 c-0.52 -1.46 -1.66 -2.04 -3.12 -2.04 l-1.3 0 z M38.816 17.32 c2.18 0 3.3 -1.4 3.3 -3.44 c0 -2.16 -1.2 -3.44 -3.3 -3.44 c-2.2 0 -3.3 1.4 -3.3 3.44 c0 2.12 1.22 3.44 3.3 3.44 z M38.816 20.1 c-3.76 0 -6.3 -2.56 -6.3 -6.22 c0 -3.78 2.66 -6.22 6.3 -6.22 c3.78 0 6.3 2.54 6.3 6.22 c0 3.8 -2.64 6.22 -6.3 6.22 z M50.164 20 l0 -12.24 l5.8 0 c2.28 0 4.22 1.72 4.22 4.02 c0 2.32 -2 4.02 -4.22 4.02 l-2.8 0 l0 4.2 l-3 0 z M55.964 10.54 l-2.8 0 l0 2.48 l2.8 0 c0.7 0 1.22 -0.54 1.22 -1.24 s-0.52 -1.24 -1.22 -1.24 z M64.152 7.76 l10.2 0 l0 2.78 l-3.6 0 l0 9.46 l-3 0 l0 -9.46 l-3.6 0 l0 -2.78 z M86.68 17.52 l-4.5 0 l-0.88 2.48 l-3.26 0 l4.9 -12.24 l3 0 l4.9 12.24 l-3.28 0 z M83.16000000000001 14.74 l2.54 0 l-1.26 -3.56 z M110.276 7.76 l3 0 l0 7.24 c0 3.18 -2.28 5.1 -5.3 5.1 c-3.1 0 -5.3 -2.04 -5.3 -5.1 l0 -7.24 l3 0 l0 7.24 c0 1.44 0.86 2.32 2.3 2.32 c1.48 0 2.3 -0.86 2.3 -2.32 l0 -7.24 z M126.364 7.76 l3 0 l0 12.24 l-3 0 l-4.8 -7.16 l0 7.16 l-3 0 l0 -12.24 l3 0 l4.8 7.16 l0 -7.16 z M150.02 17.52 l-4.5 0 l-0.88 2.48 l-3.26 0 l4.9 -12.24 l3 0 l4.9 12.24 l-3.28 0 z M146.5 14.74 l2.54 0 l-1.26 -3.56 z M166.388 7.76 l3 0 l0 12.24 l-3 0 l-4.8 -7.16 l0 7.16 l-3 0 l0 -12.24 l3 0 l4.8 7.16 l0 -7.16 z M174.85600000000002 7.76 l3 0 l0 12.24 l-3 0 l0 -12.24 z M186.304 13.26 l0 6.74 l-3 0 l0 -12.24 l3 0 l3.82 6.76 l3.82 -6.76 l3 0 l0 12.24 l-3 0 l0 -6.74 l-2.32 3.98 l-3 0 z M210.01200000000003 17.52 l-4.5 0 l-0.88 2.48 l-3.26 0 l4.9 -12.24 l3 0 l4.9 12.24 l-3.28 0 z M206.49200000000002 14.74 l2.54 0 l-1.26 -3.56 z M227.68000000000004 17.22 l0 2.78 l-9.1 0 l0 -12.24 l3 0 l0 9.46 l6.1 0 z M232.36800000000002 7.76 l3 0 l0 12.24 l-3 0 l0 -12.24 z M240.036 7.76 l10.2 0 l0 2.78 l-3.6 0 l0 9.46 l-3 0 l0 -9.46 l-3.6 0 l0 -2.78 z M260.444 17.32 c2.18 0 3.3 -1.4 3.3 -3.44 c0 -2.16 -1.2 -3.44 -3.3 -3.44 c-2.2 0 -3.3 1.4 -3.3 3.44 c0 2.12 1.22 3.44 3.3 3.44 z M260.444 20.1 c-3.76 0 -6.3 -2.56 -6.3 -6.22 c0 -3.78 2.66 -6.22 6.3 -6.22 c3.78 0 6.3 2.54 6.3 6.22 c0 3.8 -2.64 6.22 -6.3 6.22 z"></path></g><g id="SvgjsG5712" featurekey="nameLeftFeature-0" transform="matrix(2.04450564569486,0,0,2.04450564569486,9.74896262023382e-7,-2.9771868100697567)" fill="#393939"><path d="M0.6 4.880000000000001 l7.28 0 c2.48 0.02 4.5 2.04 4.5 4.52 s-2.04 4.52 -4.52 4.52 l-3.36 0 c-0.86 0 -1.56 0.7 -1.56 1.58 l0 3.9 c0 0.32 -0.28 0.6 -0.62 0.6 s-0.6 -0.28 -0.6 -0.6 l0 -3.9 c0 -1.54 1.24 -2.8 2.78 -2.8 l3.36 0 c1.82 0 3.3 -1.48 3.3 -3.3 s-1.48 -3.3 -3.32 -3.3 l-6.62 0 l0 3.3 c0 0.34 -0.28 0.6 -0.62 0.6 c-0.32 0 -0.6 -0.26 -0.6 -0.6 l0 -3.92 c0 -0.32 0.28 -0.6 0.6 -0.6 z M7.86 6.6 c1.54 0 2.8 1.26 2.8 2.8 s-1.26 2.78 -2.8 2.78 l-3.34 0 c-1.82 0 -3.3 1.48 -3.3 3.3 l0 3.92 c0 0.32 -0.28 0.6 -0.62 0.6 c-0.32 0 -0.6 -0.28 -0.6 -0.6 l0 -3.92 c0 -2.5 2.02 -4.52 4.52 -4.52 l3.36 0 c0.86 0 1.56 -0.7 1.56 -1.56 c0 -0.88 -0.7 -1.58 -1.58 -1.58 c-0.32 0 -0.6 -0.26 -0.6 -0.6 s0.28 -0.62 0.6 -0.62 z M17.08 4.880000000000001 l7.42 0 c0.8 0 1.46 0.66 1.46 1.46 s-0.62 1.48 -1.42 1.48 l-7.46 0 c-0.3 0 -0.56 0.24 -0.56 0.56 c0 0.3 0.26 0.56 0.56 0.56 c0.34 0 0.62 0.26 0.62 0.6 s-0.28 0.62 -0.62 0.62 c-0.98 0 -1.76 -0.8 -1.76 -1.78 s0.78 -1.78 1.76 -1.78 l7.42 0 c0.14 0 0.24 -0.12 0.24 -0.26 s-0.1 -0.24 -0.24 -0.24 l-7.42 0 c-1.26 0 -2.28 1.02 -2.28 2.28 s1.02 2.28 2.28 2.28 l5.38 0 c0.98 0 1.78 0.8 1.78 1.8 c0 0.98 -0.8 1.76 -1.78 1.76 l-5.38 0 c-1.26 0 -2.28 1.02 -2.28 2.28 s1.02 2.28 2.28 2.28 l8.26 0 c0.34 0 0.62 0.28 0.62 0.62 s-0.28 0.6 -0.62 0.6 l-8.26 0 c-1.94 0 -3.5 -1.56 -3.5 -3.5 c0 -1.92 1.56 -3.5 3.5 -3.5 l5.38 0 c0.32 0 0.56 -0.24 0.56 -0.54 c0 -0.34 -0.24 -0.58 -0.56 -0.58 l-5.38 0 c-1.92 0 -3.5 -1.58 -3.5 -3.5 c0 -1.94 1.58 -3.5 3.5 -3.5 z M17.08 14.74 l5.38 0 c0.34 0 0.62 0.26 0.62 0.6 s-0.28 0.62 -0.62 0.62 l-5.38 0 c-0.3 0 -0.56 0.24 -0.56 0.54 c0 0.32 0.26 0.56 0.56 0.56 c0.34 0 0.6 0.28 0.6 0.62 c0 0.32 -0.26 0.6 -0.6 0.6 c-0.98 0 -1.78 -0.8 -1.78 -1.78 s0.8 -1.76 1.78 -1.76 z M28.160000000000004 4.880000000000001 l12.86 0 c0.32 0 0.6 0.28 0.6 0.6 c0 0.34 -0.28 0.62 -0.6 0.62 l-12.86 0 c-0.32 0 -0.6 -0.28 -0.6 -0.62 c0 -0.32 0.28 -0.6 0.6 -0.6 z M28.160000000000004 6.6 l4.4 0 c0.98 0 1.78 0.8 1.78 1.78 l0 11.02 c0 0.32 -0.28 0.6 -0.62 0.6 c-0.32 0 -0.6 -0.28 -0.6 -0.6 l0 -11.02 c0 -0.3 -0.26 -0.56 -0.56 -0.56 l-4.4 0 c-0.32 0 -0.6 -0.26 -0.6 -0.6 s0.28 -0.62 0.6 -0.62 z M36.620000000000005 6.6 l4.4 0 c0.32 0 0.6 0.28 0.6 0.62 s-0.28 0.6 -0.6 0.6 l-4.4 0 c-0.3 0 -0.56 0.26 -0.56 0.56 l0 11.02 c0 0.32 -0.26 0.6 -0.6 0.6 s-0.62 -0.28 -0.62 -0.6 l0 -11.02 c0 -0.98 0.8 -1.78 1.78 -1.78 z"></path></g><g id="SvgjsG5713" featurekey="inlineSymbolFeature-0" transform="matrix(0.49461106705886826,0,0,0.49461106705886826,102.75588794350251,-2.4735501463612977)" fill="#393939"><path xmlns="http://www.w3.org/2000/svg" d="M86.229,50.001l0.721-0.723c10.115-10.115,10.116-26.574,0-36.69s-26.575-10.116-36.691,0l-0.722,0.721l-0.721-0.721  C38.7,2.472,22.24,2.472,12.124,12.588C2.008,22.704,2.008,39.163,12.125,49.278l0.721,0.723l-0.721,0.721  C2.008,60.838,2.008,77.296,12.124,87.414c10.117,10.115,26.577,10.115,36.692,0l0.721-0.722l0.722,0.722  c10.116,10.115,26.575,10.115,36.691,0c10.116-10.118,10.115-26.576,0-36.692L86.229,50.001z M53.453,15.783  c8.354-8.354,21.947-8.354,30.3,0c8.354,8.354,8.354,21.948,0.001,30.301L59.431,70.407c-1.862,1.863-2.316,4.073-0.109,6.306  l0.831,0.806c4.66,4.66,12.242,4.66,16.902,0s4.66-12.243,0.001-16.903l-0.722-0.722l1.751-1.75l0.722,0.722  c5.627,5.625,5.627,14.78,0,20.405c-5.625,5.625-14.781,5.625-20.406,0c0,0-0.354-0.298-0.833-0.78  c-0.44-0.447-4.823-4.899,0.112-9.835l24.322-24.323c7.389-7.388,7.389-19.409,0-26.798c-7.388-7.387-19.408-7.387-26.796,0.001  l-0.723,0.721l-1.752-1.751L53.453,15.783z M73.86,74.325c-2.899,2.897-7.615,2.897-10.514,0l-0.721-0.722l10.513-10.513l0.722,0.72  C76.758,66.71,76.758,71.425,73.86,74.325z M15.319,15.783c8.354-8.354,21.948-8.354,30.302,0l24.321,24.321l-1.752,1.754  L43.868,17.535c-7.389-7.388-19.408-7.388-26.796,0c-7.389,7.388-7.389,19.409,0,26.797l0.721,0.722l-1.752,1.752l-0.722-0.721  C6.965,37.731,6.965,24.138,15.319,15.783z M62.626,26.398l0.721-0.722c2.898-2.898,7.614-2.898,10.514,0  c2.897,2.898,2.897,7.613,0,10.514l-0.722,0.721L62.626,26.398z M24.337,58.297l-2.319,2.318c-4.661,4.66-4.66,12.243,0,16.903  c4.659,4.66,12.242,4.66,16.902,0l0.722-0.722c3.561-3.559-0.725-7.104-2.787-9.167l-1.343-1.354l-6.383-6.383l1.752-1.75  l8.49,8.489l0.67,0.672c6.242,6.239,1.837,10.76,1.353,11.244l-0.722,0.722c-5.626,5.628-14.78,5.625-20.407,0  c-5.625-5.625-5.625-14.78,0.001-20.407L44.59,34.54l1.751,1.754L34.23,48.403L24.337,58.297z M25.934,63.091l10.513,10.51  l-0.722,0.723c-2.899,2.897-7.614,2.899-10.512,0c-2.898-2.898-2.898-7.615,0-10.513L25.934,63.091z M49.536,39.488l10.512,10.513  L49.536,60.512L39.023,50.001L49.536,39.488z M38.921,22.483c-4.66-4.662-12.243-4.66-16.902,0c-4.66,4.658-4.661,12.242,0,16.902  l0.721,0.722l-1.752,1.751l-0.722-0.721c-5.626-5.627-5.625-14.781,0-20.408c5.627-5.625,14.781-5.626,20.407,0l24.323,24.323  l-1.752,1.752L38.921,22.483z M36.447,26.399L25.934,36.911l-0.721-0.721c-2.899-2.899-2.899-7.615-0.001-10.514  c2.898-2.898,7.614-2.898,10.513,0.002L36.447,26.399z M83.753,84.218c-8.353,8.354-21.946,8.354-30.3,0l-0.909-0.813  c-0.198-0.199-1.873-1.863-3.107-4.434c-1.151,2.43-2.679,4.096-3.094,4.525l-0.722,0.722c-8.354,8.354-21.948,8.354-30.302,0  c-8.354-8.354-8.354-21.947,0-30.303l24.323-24.321l1.752,1.753L17.072,55.669c-7.389,7.389-7.389,19.409,0,26.797  c7.388,7.389,19.408,7.389,26.796,0l0.761-0.762c1.918-1.991,3.366-5.064,3.473-8.229c0-0.093,0.007-0.186,0.009-0.277  c0.022-2.474-0.788-4.981-2.86-7.055c-1.284-1.284-3.86-3.86-3.86-3.86l-0.371-0.395l-6.942-6.941l1.752-1.753l9.693,9.693  l0.813,0.828c1.438,1.439,2.459,2.871,3.161,4.269c0.705-1.348,1.705-2.73,3.102-4.128l0.134-0.148l24.324-24.322  c4.659-4.66,4.659-12.244-0.001-16.904c-4.659-4.66-12.242-4.66-16.902,0l-0.722,0.723l-1.751-1.752l0.721-0.723  c5.625-5.625,14.781-5.625,20.406,0c5.627,5.627,5.627,14.781,0,20.406L54.482,65.46l-0.767,0.77  c-4.868,4.868-2.956,11.839,0.604,15.397l0.886,0.839c7.388,7.389,19.408,7.389,26.796,0c7.389-7.388,7.389-19.408,0-26.797  l-0.722-0.722l1.752-1.753l0.722,0.723C92.107,62.271,92.107,75.863,83.753,84.218z"></path></g><g id="SvgjsG5714" featurekey="nameRightFeature-0" transform="matrix(2.4000725623623675,0,0,2.4000725623623675,154.62024233874686,-10.088516369353549)" fill="#393939"><path d="M6.66 20 c-0.08 0 -0.16 -0.04 -0.2 -0.12 c-0.06 -0.06 -0.06 -0.16 -0.04 -0.24 l4.66 -11.98 c0.04 -0.1 0.14 -0.16 0.24 -0.16 l2.68 0 c0.1 0 0.2 0.06 0.24 0.16 l4.58 11.98 c0.02 0.08 0.02 0.16 -0.04 0.24 c-0.04 0.08 -0.12 0.12 -0.2 0.12 l-2.78 0 c-0.1 0 -0.2 -0.06 -0.24 -0.16 l-0.74 -1.84 l-4.5 0.02 l-0.74 1.82 c-0.04 0.1 -0.14 0.16 -0.24 0.16 l-2.68 0 z M11.14 15.5 l2.88 0 l-1.44 -4.24 z M20.900000000000002 20 c-0.16 0 -0.26 -0.12 -0.26 -0.26 l0 -11.98 c0 -0.14 0.1 -0.26 0.26 -0.26 l4.54 0 c1.2 0 2.3 0.26 3.26 0.8 c0.96 0.52 1.7 1.26 2.24 2.22 c0.52 0.94 0.8 2.02 0.8 3.22 c0 1.22 -0.28 2.3 -0.82 3.24 c-0.54 0.96 -1.3 1.7 -2.28 2.22 c-0.96 0.54 -2.08 0.8 -3.3 0.8 l-4.44 0 z M23.740000000000002 17.2 l1.76 0 c0.58 0 1.12 -0.14 1.58 -0.42 c0.46 -0.3 0.84 -0.7 1.1 -1.22 s0.4 -1.12 0.4 -1.8 c0 -0.66 -0.14 -1.28 -0.42 -1.8 c-0.28 -0.54 -0.66 -0.94 -1.14 -1.24 c-0.48 -0.28 -1.04 -0.44 -1.64 -0.44 l-1.64 0 l0 6.92 z M40.18 20 c-1.2 0 -2.3 -0.28 -3.26 -0.84 c-0.98 -0.56 -1.76 -1.36 -2.34 -2.32 c-0.56 -0.98 -0.84 -2.1 -0.84 -3.3 c0 -1.18 0.28 -2.28 0.84 -3.26 c0.58 -0.98 1.34 -1.76 2.32 -2.32 s2.08 -0.84 3.28 -0.84 c1.18 0 2.28 0.28 3.26 0.84 s1.76 1.34 2.32 2.32 c0.58 0.98 0.86 2.08 0.86 3.26 c0 1.2 -0.28 2.3 -0.86 3.28 c-0.56 0.98 -1.34 1.76 -2.32 2.34 c-0.98 0.56 -2.08 0.84 -3.26 0.84 z M40.22 17.12 c0.58 0 1.12 -0.16 1.6 -0.46 c0.5 -0.32 0.9 -0.74 1.18 -1.3 c0.3 -0.54 0.44 -1.16 0.44 -1.82 c0 -0.64 -0.14 -1.26 -0.44 -1.8 c-0.28 -0.54 -0.68 -0.96 -1.18 -1.28 c-0.48 -0.3 -1.02 -0.46 -1.6 -0.46 c-0.6 0 -1.14 0.16 -1.64 0.46 c-0.52 0.32 -0.92 0.74 -1.22 1.28 c-0.3 0.56 -0.44 1.16 -0.44 1.8 c0 0.66 0.14 1.28 0.44 1.82 c0.32 0.54 0.72 0.98 1.22 1.28 c0.5 0.32 1.04 0.48 1.64 0.48 z M48.86000000000001 20 c-0.14 0 -0.24 -0.12 -0.24 -0.26 l0 -11.98 c0 -0.14 0.1 -0.26 0.24 -0.26 l4.9 0 c1.52 0 2.72 0.38 3.56 1.16 c1.24 1.12 1.66 3.24 1.06 4.8 c-0.22 0.56 -0.6 1.08 -1.08 1.46 c-1.62 1.26 -3.64 1.14 -5.58 1.14 l0 3.68 c0 0.14 -0.12 0.26 -0.26 0.26 l-2.6 0 z M51.720000000000006 13.280000000000001 c0 0 2.52 0.28 3.4 -0.3 c0.34 -0.22 0.54 -0.76 0.54 -1.16 c-0.02 -0.44 -0.24 -0.9 -0.6 -1.18 c-0.38 -0.32 -1.32 -0.42 -1.8 -0.42 l-1.54 0.04 l0 3.02 z M63.92000000000001 20 c-0.14 0 -0.24 -0.12 -0.24 -0.26 l0 -9.44 l-2.74 0 c-0.14 0 -0.26 -0.1 -0.26 -0.24 l0 -2.3 c0 -0.14 0.12 -0.26 0.26 -0.26 l8.58 0 c0.16 0 0.26 0.12 0.26 0.26 l0 2.3 c0 0.14 -0.1 0.24 -0.26 0.24 l-2.74 0 l0 9.44 c0 0.14 -0.12 0.26 -0.26 0.26 l-2.6 0 z M72.04 20 c-0.14 0 -0.26 -0.12 -0.26 -0.26 l0 -11.98 c0 -0.14 0.12 -0.26 0.26 -0.26 l2.6 0 c0.14 0 0.26 0.12 0.26 0.26 l0 11.98 c0 0.14 -0.12 0.26 -0.26 0.26 l-2.6 0 z M83.34 20 c-1.2 0 -2.3 -0.28 -3.26 -0.84 c-0.98 -0.56 -1.76 -1.36 -2.34 -2.32 c-0.56 -0.98 -0.84 -2.1 -0.84 -3.3 c0 -1.18 0.28 -2.28 0.84 -3.26 c0.58 -0.98 1.34 -1.76 2.32 -2.32 s2.08 -0.84 3.28 -0.84 c1.18 0 2.28 0.28 3.26 0.84 s1.76 1.34 2.32 2.32 c0.58 0.98 0.86 2.08 0.86 3.26 c0 1.2 -0.28 2.3 -0.86 3.28 c-0.56 0.98 -1.34 1.76 -2.32 2.34 c-0.98 0.56 -2.08 0.84 -3.26 0.84 z M83.38000000000001 17.12 c0.58 0 1.12 -0.16 1.6 -0.46 c0.5 -0.32 0.9 -0.74 1.18 -1.3 c0.3 -0.54 0.44 -1.16 0.44 -1.82 c0 -0.64 -0.14 -1.26 -0.44 -1.8 c-0.28 -0.54 -0.68 -0.96 -1.18 -1.28 c-0.48 -0.3 -1.02 -0.46 -1.6 -0.46 c-0.6 0 -1.14 0.16 -1.64 0.46 c-0.52 0.32 -0.92 0.74 -1.22 1.28 c-0.3 0.56 -0.44 1.16 -0.44 1.8 c0 0.66 0.14 1.28 0.44 1.82 c0.32 0.54 0.72 0.98 1.22 1.28 c0.5 0.32 1.04 0.48 1.64 0.48 z M92.04 20 c-0.14 0 -0.26 -0.12 -0.26 -0.26 l0 -11.98 c0 -0.14 0.12 -0.26 0.26 -0.26 l2.36 0 c0.08 0 0.16 0.04 0.22 0.1 l4.6 7.1 l0 -6.94 c0 -0.14 0.12 -0.26 0.26 -0.26 l2.46 0 c0.14 0 0.26 0.12 0.26 0.26 l0 11.98 c0 0.14 -0.12 0.26 -0.26 0.26 l-2.36 0 c-0.08 0 -0.16 -0.04 -0.22 -0.1 l-4.58 -7.06 l0 6.9 c0 0.14 -0.12 0.26 -0.26 0.26 l-2.48 0 z"></path></g></svg>