<svg viewBox="0 0 640 400" data-background-color="#ffffff" preserveAspectRatio="xMidYMid meet" height="400" width="640" xmlns="http://www.w3.org/2000/svg" xmlns:xlink="http://www.w3.org/1999/xlink"><rect width="640" height="400" x="0" y="0" opacity="1" fill="#ffffff" data-fill-palette-color="background" id="background"></rect><g id="tight-bounds" transform="matrix(1,0,0,1,122.24000000000001,149.59478371573422)"><svg viewBox="0 0 395.52 100.81043256853154" height="100.81043256853154" width="395.52"><g><svg viewBox="0 0 600.0430629919497 152.93942339190198" height="100.81043256853154" width="395.52"><g><rect width="6.236235841172991" height="111.21861107732377" x="411.8452247151125" y="20.860406157289106" fill="#c56e33" opacity="1" stroke-width="0" stroke="transparent" fill-opacity="1" class="rect-r-0" data-fill-palette-color="primary" rx="1%" id="r-0" data-palette-color="#c56e33"></rect></g><g transform="matrix(1,0,0,1,0,21.13706936892423)"><svg viewBox="0 0 395.52 110.66528465405352" height="110.66528465405352" width="395.52"><g id="textblocktransform"><svg viewBox="0 0 395.52 110.66528465405352" height="110.66528465405352" width="395.52" id="textblock"><g><svg viewBox="0 0 395.52 69.1524115755627" height="69.1524115755627" width="395.52"><g transform="matrix(1,0,0,1,0,0)"><svg width="395.52" viewBox="1.75 -32.70000076293945 249.27000427246094 43.5" height="69.1524115755627" data-palette-color="#c56e33"><g class="wordmark-text-0" data-fill-palette-color="primary" id="text-0"><path d="M4.1-30.6L1.75-30.6 1.75-31.5 13.95-31.5Q18.2-31.5 21.13-28.93 24.05-26.35 24.05-22 24.05-17.65 21.13-15.08 18.2-12.5 13.95-12.5L13.95-12.5 8.9-12.5 8.9-1.6Q8.9-0.9 9.6-0.9L9.6-0.9 12.95-0.9 12.95 0 1.75 0 1.75-0.9 4.1-0.9Q4.8-0.9 4.8-1.6L4.8-1.6 4.8-30Q4.8-30.6 4.1-30.6L4.1-30.6ZM13.7-30.1L13.7-30.1 8.9-30.1 8.9-13.9 13.7-13.9Q16.65-13.9 18.35-16.32 20.05-18.75 20.05-22 20.05-25.25 18.35-27.68 16.65-30.1 13.7-30.1ZM36.4-22.2L36.4-22.2Q39.85-22.2 41.85-19.9 43.85-17.6 43.85-13.15L43.85-13.15Q43.85-12.25 43.75-11.15L43.75-11.15 30.1-11.15 30.1-10.8Q30.1-6.05 31.82-3.33 33.55-0.6 36.27-0.6 39-0.6 40.75-2 42.5-3.4 43.15-6L43.15-6 44.1-5.8Q43.5-2.75 41.35-1.07 39.2 0.6 36.4 0.6L36.4 0.6Q32.05 0.6 29.17-2.45 26.3-5.5 26.3-10.78 26.3-16.05 29.2-19.13 32.1-22.2 36.4-22.2ZM40.4-14.85L40.4-14.85Q40.4-21 35.8-21L35.8-21Q33.5-21 31.87-18.5 30.25-16 30.15-12.15L30.15-12.15 40.2-12.15Q40.4-13.85 40.4-14.85ZM53.24-26.9L53.24-26.9 53.99-26.9 53.99-21.6 58.99-21.6 58.99-20.7 53.99-20.7 53.99-3.75Q53.99-1.05 55.49-1.05L55.49-1.05Q56.2-1.05 56.72-1.7 57.24-2.35 57.24-3.2 57.24-4.05 57.09-4.8L57.09-4.8 58.05-4.95Q58.24-4.2 58.24-3.3L58.24-3.3Q58.24-1.5 57.17-0.45 56.09 0.6 54.34 0.6 52.59 0.6 51.49-0.83 50.39-2.25 50.39-5.1L50.39-5.1 50.39-20Q50.39-20.7 49.7-20.7L49.7-20.7 47.34-20.7 47.34-21.6 49.8-21.6Q51.39-21.6 53.24-26.9Z" fill="#c56e33" data-fill-palette-color="primary"></path><path d="M100.29-0.9L100.29 0 90.04 0 90.04-0.9 93.29-0.9 89.79-10.55 78.79-10.55 75.29-0.9 78.54-0.9 78.54 0 70.99 0 70.99-0.9 72.84-0.9Q73.54-0.9 73.79-1.6L73.79-1.6 84.79-31.5 86.49-31.5 97.49-1.6Q97.74-0.9 98.44-0.9L98.44-0.9 100.29-0.9ZM89.29-11.95L84.34-25.6 79.34-11.95 89.29-11.95ZM116.64 0.3L116.64 0.3 116.64-4Q113.83 0.6 110.01 0.6 106.19 0.6 103.99-2.45 101.79-5.5 101.79-10.75 101.79-16 104.58-19.1 107.39-22.2 111.64-22.2L111.64-22.2Q114.39-22.2 116.64-20.85L116.64-20.85 116.64-30.8Q116.64-31.5 115.94-31.5L115.94-31.5 113.58-31.5 113.58-32.4 116.04-32.4Q119.04-32.4 120.24-32.7L120.24-32.7 120.24-1.6Q120.24-0.9 120.94-0.9L120.94-0.9 123.29-0.9 123.29 0 120.83 0Q117.83 0 116.64 0.3ZM111.76-20.7Q109.19-20.7 107.39-18.13 105.58-15.55 105.58-10.95 105.58-6.35 107.06-3.83 108.54-1.3 110.79-1.3L110.79-1.3Q114.04-1.3 116.64-5.85L116.64-5.85 116.64-19.3Q114.33-20.7 111.76-20.7ZM129.58-2.45Q126.78-5.5 126.78-10.8 126.78-16.1 129.58-19.15 132.38-22.2 136.88-22.2 141.38-22.2 144.21-19.15 147.03-16.1 147.03-10.8 147.03-5.5 144.21-2.45 141.38 0.6 136.88 0.6 132.38 0.6 129.58-2.45ZM132.38-18.32Q130.58-15.55 130.58-10.8 130.58-6.05 132.38-3.28 134.18-0.5 136.88-0.5 139.58-0.5 141.41-3.28 143.23-6.05 143.23-10.8 143.23-15.55 141.41-18.32 139.58-21.1 136.88-21.1 134.18-21.1 132.38-18.32ZM153.58 9.2L153.58 9.2 153.58-20Q153.58-20.7 152.88-20.7L152.88-20.7 150.53-20.7 150.53-21.6 152.98-21.6Q155.98-21.6 157.18-21.9L157.18-21.9 157.18-14.9Q158.03-18.5 159.91-20.35 161.78-22.2 164.08-22.2L164.08-22.2Q167.23-22.2 169.63-19.05 172.03-15.9 172.03-10.7 172.03-5.5 169.31-2.45 166.58 0.6 162.18 0.6L162.18 0.6Q159.43 0.6 157.18-0.75L157.18-0.75 157.18 9.2Q157.18 9.9 157.88 9.9L157.88 9.9 161.23 9.9 161.23 10.8 150.53 10.8 150.53 9.9 152.88 9.9Q153.58 9.9 153.58 9.2ZM168.23-10.6Q168.23-15.25 166.78-17.78 165.33-20.3 163.11-20.3 160.88-20.3 159.03-17.35 157.18-14.4 157.18-8.85L157.18-8.85 157.18-2.1Q159.38-0.65 162.01-0.65 164.63-0.65 166.43-3.3 168.23-5.95 168.23-10.6ZM180.93-26.9L180.93-26.9 181.68-26.9 181.68-21.6 186.68-21.6 186.68-20.7 181.68-20.7 181.68-3.75Q181.68-1.05 183.18-1.05L183.18-1.05Q183.88-1.05 184.4-1.7 184.93-2.35 184.93-3.2 184.93-4.05 184.78-4.8L184.78-4.8 185.73-4.95Q185.93-4.2 185.93-3.3L185.93-3.3Q185.93-1.5 184.85-0.45 183.78 0.6 182.03 0.6 180.28 0.6 179.18-0.83 178.08-2.25 178.08-5.1L178.08-5.1 178.08-20Q178.08-20.7 177.38-20.7L177.38-20.7 175.03-20.7 175.03-21.6 177.48-21.6Q179.08-21.6 180.93-26.9ZM192.98-1.6L192.98-1.6 192.98-20Q192.98-20.7 192.27-20.7L192.27-20.7 189.93-20.7 189.93-21.6 192.37-21.6Q195.37-21.6 196.58-21.9L196.58-21.9 196.58-1.5Q196.58-0.9 197.27-0.9L197.27-0.9 199.62-0.9 199.62 0 189.93 0 189.93-0.9 192.27-0.9Q192.98-0.9 192.98-1.6ZM193.1-27.13Q192.43-27.8 192.43-28.8 192.43-29.8 193.1-30.48 193.77-31.15 194.77-31.15 195.77-31.15 196.45-30.48 197.12-29.8 197.12-28.8 197.12-27.8 196.45-27.13 195.77-26.45 194.77-26.45 193.77-26.45 193.1-27.13ZM205.92-2.45Q203.12-5.5 203.12-10.8 203.12-16.1 205.92-19.15 208.72-22.2 213.22-22.2 217.72-22.2 220.55-19.15 223.37-16.1 223.37-10.8 223.37-5.5 220.55-2.45 217.72 0.6 213.22 0.6 208.72 0.6 205.92-2.45ZM208.72-18.32Q206.92-15.55 206.92-10.8 206.92-6.05 208.72-3.28 210.52-0.5 213.22-0.5 215.92-0.5 217.75-3.28 219.57-6.05 219.57-10.8 219.57-15.55 217.75-18.32 215.92-21.1 213.22-21.1 210.52-21.1 208.72-18.32ZM247.97-14.6L247.97-14.6 247.97-1.5Q247.97-0.9 248.67-0.9L248.67-0.9 251.02-0.9 251.02 0 242.02 0 242.02-0.9 243.67-0.9Q244.37-0.9 244.37-1.5L244.37-1.5 244.37-15.25Q244.37-17.8 243.24-19.03 242.12-20.25 240.27-20.25L240.27-20.25Q237.67-20.25 235.97-17.18 234.27-14.1 234.27-8.35L234.27-8.35 234.27-1.6Q234.27-0.9 234.97-0.9L234.97-0.9 236.62-0.9 236.62 0 227.62 0 227.62-0.9 229.97-0.9Q230.67-0.9 230.67-1.5L230.67-1.5 230.67-20Q230.67-20.7 229.97-20.7L229.97-20.7 227.62-20.7 227.62-21.6 230.07-21.6Q233.07-21.6 234.27-21.9L234.27-21.9 234.27-15.1Q235.97-22.2 241.77-22.2L241.77-22.2Q244.37-22.2 246.17-20.33 247.97-18.45 247.97-14.6Z" fill="#c56e33" data-fill-palette-color="primary"></path></g></svg></g></svg></g><g transform="matrix(1,0,0,1,163.310208,85.47763629067524)"><svg viewBox="0 0 232.209792 25.187648363378283" height="25.187648363378283" width="232.209792"><g transform="matrix(1,0,0,1,0,0)"><svg width="232.209792" viewBox="0.15000000596046448 -35.599998474121094 422.6600036621094 45.849998474121094" height="25.187648363378283" data-palette-color="#c56e33"><path d="M10.15-18.35L10.15-18.35 8.6-13.35 18.45-13.35 16.9-18.35Q16-21.1 15.2-23.83 14.4-26.55 13.6-29.4L13.6-29.4 13.4-29.4Q12.65-26.55 11.85-23.83 11.05-21.1 10.15-18.35ZM4.4 0L0.15 0 11.25-32.8 15.95-32.8 27.05 0 22.6 0 19.5-10 7.55-10 4.4 0ZM39.6 0.6L39.6 0.6Q35 0.6 32.27-2.7 29.55-6 29.55-12.1L29.55-12.1Q29.55-15.05 30.42-17.43 31.3-19.8 32.75-21.45 34.2-23.1 36.1-24 38-24.9 40.1-24.9L40.1-24.9Q42.2-24.9 43.75-24.15 45.3-23.4 46.9-22.1L46.9-22.1 46.7-26.25 46.7-35.6 50.85-35.6 50.85 0 47.45 0 47.1-2.85 46.95-2.85Q45.5-1.45 43.62-0.43 41.75 0.6 39.6 0.6ZM40.5-2.85L40.5-2.85Q42.2-2.85 43.7-3.68 45.2-4.5 46.7-6.2L46.7-6.2 46.7-18.9Q45.15-20.3 43.72-20.88 42.3-21.45 40.8-21.45L40.8-21.45Q39.35-21.45 38.07-20.78 36.8-20.1 35.85-18.88 34.9-17.65 34.35-15.95 33.8-14.25 33.8-12.15L33.8-12.15Q33.8-7.75 35.55-5.3 37.3-2.85 40.5-2.85ZM68.5 0.6L68.5 0.6Q66.25 0.6 64.22-0.25 62.2-1.1 60.65-2.73 59.1-4.35 58.17-6.73 57.25-9.1 57.25-12.1L57.25-12.1Q57.25-15.15 58.17-17.53 59.1-19.9 60.65-21.55 62.2-23.2 64.22-24.05 66.25-24.9 68.5-24.9L68.5-24.9Q70.75-24.9 72.77-24.05 74.8-23.2 76.35-21.55 77.9-19.9 78.82-17.53 79.75-15.15 79.75-12.1L79.75-12.1Q79.75-9.1 78.82-6.73 77.9-4.35 76.35-2.73 74.8-1.1 72.77-0.25 70.75 0.6 68.5 0.6ZM68.5-2.8L68.5-2.8Q70.05-2.8 71.35-3.48 72.65-4.15 73.57-5.38 74.5-6.6 75-8.3 75.5-10 75.5-12.1L75.5-12.1Q75.5-14.2 75-15.93 74.5-17.65 73.57-18.9 72.65-20.15 71.35-20.83 70.05-21.5 68.5-21.5L68.5-21.5Q66.95-21.5 65.65-20.83 64.35-20.15 63.42-18.9 62.5-17.65 62-15.93 61.5-14.2 61.5-12.1L61.5-12.1Q61.5-10 62-8.3 62.5-6.6 63.42-5.38 64.35-4.15 65.65-3.48 66.95-2.8 68.5-2.8ZM90.24 10.25L86.14 10.25 86.14-24.3 89.54-24.3 89.89-21.5 90.04-21.5Q91.69-22.9 93.67-23.9 95.64-24.9 97.79-24.9L97.79-24.9Q100.14-24.9 101.94-24.03 103.74-23.15 104.94-21.53 106.14-19.9 106.77-17.63 107.39-15.35 107.39-12.5L107.39-12.5Q107.39-9.4 106.54-6.98 105.69-4.55 104.24-2.85 102.79-1.15 100.89-0.28 98.99 0.6 96.89 0.6L96.89 0.6Q95.19 0.6 93.52-0.15 91.84-0.9 90.14-2.2L90.14-2.2 90.24 2.05 90.24 10.25ZM96.19-2.85L96.19-2.85Q97.69-2.85 98.97-3.53 100.24-4.2 101.17-5.43 102.09-6.65 102.62-8.45 103.14-10.25 103.14-12.5L103.14-12.5Q103.14-14.5 102.79-16.15 102.44-17.8 101.67-18.98 100.89-20.15 99.67-20.8 98.44-21.45 96.74-21.45L96.74-21.45Q95.19-21.45 93.62-20.6 92.04-19.75 90.24-18.15L90.24-18.15 90.24-5.4Q91.89-4 93.44-3.43 94.99-2.85 96.19-2.85ZM120.69 0.6L120.69 0.6Q118.74 0.6 117.42 0 116.09-0.6 115.27-1.65 114.44-2.7 114.09-4.2 113.74-5.7 113.74-7.5L113.74-7.5 113.74-20.95 110.14-20.95 110.14-24.05 113.94-24.3 114.44-31.1 117.89-31.1 117.89-24.3 124.44-24.3 124.44-20.95 117.89-20.95 117.89-7.45Q117.89-5.2 118.72-3.98 119.54-2.75 121.64-2.75L121.64-2.75Q122.29-2.75 123.04-2.95 123.79-3.15 124.39-3.4L124.39-3.4 125.19-0.3Q124.19 0.05 123.02 0.33 121.84 0.6 120.69 0.6ZM134.49 0.6L134.49 0.6Q131.44 0.6 129.41-1.2 127.39-3 127.39-6.3L127.39-6.3Q127.39-10.3 130.94-12.43 134.49-14.55 142.29-15.4L142.29-15.4Q142.29-16.55 142.06-17.65 141.84-18.75 141.29-19.6 140.74-20.45 139.76-20.98 138.79-21.5 137.29-21.5L137.29-21.5Q135.19-21.5 133.34-20.7 131.49-19.9 130.04-18.9L130.04-18.9 128.44-21.75Q130.14-22.85 132.59-23.88 135.04-24.9 137.99-24.9L137.99-24.9Q142.44-24.9 144.44-22.18 146.44-19.45 146.44-14.9L146.44-14.9 146.44 0 143.04 0 142.69-2.9 142.54-2.9Q140.79-1.45 138.79-0.43 136.79 0.6 134.49 0.6ZM135.69-2.7L135.69-2.7Q137.44-2.7 138.99-3.53 140.54-4.35 142.29-5.95L142.29-5.95 142.29-12.7Q139.24-12.3 137.16-11.75 135.09-11.2 133.81-10.45 132.54-9.7 131.96-8.72 131.39-7.75 131.39-6.6L131.39-6.6Q131.39-4.5 132.64-3.6 133.89-2.7 135.69-2.7ZM171.18 0.6L171.18 0.6Q167.28 0.6 165.51-1.8 163.73-4.2 163.73-8.9L163.73-8.9 163.73-24.3 167.88-24.3 167.88-9.45Q167.88-6 168.96-4.48 170.03-2.95 172.43-2.95L172.43-2.95Q174.33-2.95 175.78-3.93 177.23-4.9 178.98-7.05L178.98-7.05 178.98-24.3 183.08-24.3 183.08 0 179.68 0 179.33-3.8 179.18-3.8Q177.48-1.8 175.61-0.6 173.73 0.6 171.18 0.6ZM195.38 0L191.28 0 191.28-24.3 194.68-24.3 195.03-20.8 195.18-20.8Q196.93-22.55 198.86-23.73 200.78-24.9 203.33-24.9L203.33-24.9Q207.18-24.9 208.96-22.5 210.73-20.1 210.73-15.4L210.73-15.4 210.73 0 206.63 0 206.63-14.85Q206.63-18.3 205.53-19.83 204.43-21.35 202.03-21.35L202.03-21.35Q200.13-21.35 198.68-20.4 197.23-19.45 195.38-17.6L195.38-17.6 195.38 0ZM224.23 0.6L224.23 0.6Q221.18 0.6 219.15-1.2 217.13-3 217.13-6.3L217.13-6.3Q217.13-10.3 220.68-12.43 224.23-14.55 232.03-15.4L232.03-15.4Q232.03-16.55 231.8-17.65 231.58-18.75 231.03-19.6 230.48-20.45 229.5-20.98 228.53-21.5 227.03-21.5L227.03-21.5Q224.93-21.5 223.08-20.7 221.23-19.9 219.78-18.9L219.78-18.9 218.18-21.75Q219.88-22.85 222.33-23.88 224.78-24.9 227.73-24.9L227.73-24.9Q232.18-24.9 234.18-22.18 236.18-19.45 236.18-14.9L236.18-14.9 236.18 0 232.78 0 232.43-2.9 232.28-2.9Q230.53-1.45 228.53-0.43 226.53 0.6 224.23 0.6ZM225.43-2.7L225.43-2.7Q227.18-2.7 228.73-3.53 230.28-4.35 232.03-5.95L232.03-5.95 232.03-12.7Q228.98-12.3 226.9-11.75 224.83-11.2 223.55-10.45 222.28-9.7 221.7-8.72 221.13-7.75 221.13-6.6L221.13-6.6Q221.13-4.5 222.38-3.6 223.63-2.7 225.43-2.7ZM257.92 0L253.82 0 253.82-24.3 257.22-24.3 257.57-20.8 257.72-20.8Q259.32-22.55 261.2-23.73 263.07-24.9 265.27-24.9L265.27-24.9Q268.07-24.9 269.65-23.68 271.22-22.45 271.97-20.25L271.97-20.25Q273.87-22.35 275.8-23.63 277.72-24.9 279.97-24.9L279.97-24.9Q283.72-24.9 285.55-22.5 287.37-20.1 287.37-15.4L287.37-15.4 287.37 0 283.27 0 283.27-14.85Q283.27-18.3 282.17-19.83 281.07-21.35 278.77-21.35L278.77-21.35Q276.02-21.35 272.67-17.6L272.67-17.6 272.67 0 268.57 0 268.57-14.85Q268.57-18.3 267.47-19.83 266.37-21.35 264.02-21.35L264.02-21.35Q261.27-21.35 257.92-17.6L257.92-17.6 257.92 0ZM300.87 0.6L300.87 0.6Q297.82 0.6 295.8-1.2 293.77-3 293.77-6.3L293.77-6.3Q293.77-10.3 297.32-12.43 300.87-14.55 308.67-15.4L308.67-15.4Q308.67-16.55 308.45-17.65 308.22-18.75 307.67-19.6 307.12-20.45 306.15-20.98 305.17-21.5 303.67-21.5L303.67-21.5Q301.57-21.5 299.72-20.7 297.87-19.9 296.42-18.9L296.42-18.9 294.82-21.75Q296.52-22.85 298.97-23.88 301.42-24.9 304.37-24.9L304.37-24.9Q308.82-24.9 310.82-22.18 312.82-19.45 312.82-14.9L312.82-14.9 312.82 0 309.42 0 309.07-2.9 308.92-2.9Q307.17-1.45 305.17-0.43 303.17 0.6 300.87 0.6ZM302.07-2.7L302.07-2.7Q303.82-2.7 305.37-3.53 306.92-4.35 308.67-5.95L308.67-5.95 308.67-12.7Q305.62-12.3 303.55-11.75 301.47-11.2 300.2-10.45 298.92-9.7 298.35-8.72 297.77-7.75 297.77-6.6L297.77-6.6Q297.77-4.5 299.02-3.6 300.27-2.7 302.07-2.7ZM326.82 0.6L326.82 0.6Q324.22 0.6 321.87-0.35 319.52-1.3 317.77-2.75L317.77-2.75 319.82-5.5Q321.42-4.2 323.09-3.4 324.77-2.6 326.97-2.6L326.97-2.6Q329.37-2.6 330.57-3.7 331.77-4.8 331.77-6.4L331.77-6.4Q331.77-7.35 331.27-8.05 330.77-8.75 329.99-9.28 329.22-9.8 328.22-10.2 327.22-10.6 326.22-11L326.22-11Q324.92-11.45 323.62-12.03 322.32-12.6 321.29-13.43 320.27-14.25 319.62-15.35 318.97-16.45 318.97-18L318.97-18Q318.97-19.45 319.54-20.73 320.12-22 321.19-22.93 322.27-23.85 323.82-24.38 325.37-24.9 327.32-24.9L327.32-24.9Q329.62-24.9 331.54-24.1 333.47-23.3 334.87-22.15L334.87-22.15 332.92-19.55Q331.67-20.5 330.32-21.1 328.97-21.7 327.37-21.7L327.37-21.7Q325.07-21.7 323.99-20.65 322.92-19.6 322.92-18.2L322.92-18.2Q322.92-17.35 323.37-16.73 323.82-16.1 324.57-15.63 325.32-15.15 326.29-14.78 327.27-14.4 328.32-14L328.32-14Q329.62-13.5 330.94-12.95 332.27-12.4 333.32-11.58 334.37-10.75 335.04-9.55 335.72-8.35 335.72-6.65L335.72-6.65Q335.72-5.15 335.14-3.85 334.57-2.55 333.44-1.55 332.32-0.55 330.64 0.03 328.97 0.6 326.82 0.6ZM351.02 0.6L351.02 0.6Q348.62 0.6 346.52-0.25 344.42-1.1 342.89-2.73 341.37-4.35 340.49-6.73 339.62-9.1 339.62-12.1L339.62-12.1Q339.62-15.15 340.57-17.53 341.52-19.9 343.12-21.55 344.72-23.2 346.84-24.05 348.97-24.9 351.32-24.9L351.32-24.9Q353.72-24.9 355.42-24.05 357.12-23.2 358.42-22.05L358.42-22.05 356.32-19.35Q355.27-20.3 354.09-20.9 352.92-21.5 351.47-21.5L351.47-21.5Q349.82-21.5 348.42-20.83 347.02-20.15 346.02-18.9 345.02-17.65 344.44-15.93 343.87-14.2 343.87-12.1L343.87-12.1Q343.87-10 344.42-8.3 344.97-6.6 345.94-5.38 346.92-4.15 348.32-3.48 349.72-2.8 351.37-2.8L351.37-2.8Q353.07-2.8 354.49-3.53 355.92-4.25 357.07-5.25L357.07-5.25 358.87-2.5Q357.22-1.05 355.22-0.23 353.22 0.6 351.02 0.6ZM372.61 0.6L372.61 0.6Q370.36 0.6 368.34-0.25 366.31-1.1 364.76-2.73 363.21-4.35 362.29-6.73 361.36-9.1 361.36-12.1L361.36-12.1Q361.36-15.15 362.29-17.53 363.21-19.9 364.76-21.55 366.31-23.2 368.34-24.05 370.36-24.9 372.61-24.9L372.61-24.9Q374.86-24.9 376.89-24.05 378.91-23.2 380.46-21.55 382.01-19.9 382.94-17.53 383.86-15.15 383.86-12.1L383.86-12.1Q383.86-9.1 382.94-6.73 382.01-4.35 380.46-2.73 378.91-1.1 376.89-0.25 374.86 0.6 372.61 0.6ZM372.61-2.8L372.61-2.8Q374.16-2.8 375.46-3.48 376.76-4.15 377.69-5.38 378.61-6.6 379.11-8.3 379.61-10 379.61-12.1L379.61-12.1Q379.61-14.2 379.11-15.93 378.61-17.65 377.69-18.9 376.76-20.15 375.46-20.83 374.16-21.5 372.61-21.5L372.61-21.5Q371.06-21.5 369.76-20.83 368.46-20.15 367.54-18.9 366.61-17.65 366.11-15.93 365.61-14.2 365.61-12.1L365.61-12.1Q365.61-10 366.11-8.3 366.61-6.6 367.54-5.38 368.46-4.15 369.76-3.48 371.06-2.8 372.61-2.8ZM397.06 0.6L397.06 0.6Q395.11 0.6 393.79 0 392.46-0.6 391.64-1.65 390.81-2.7 390.46-4.2 390.11-5.7 390.11-7.5L390.11-7.5 390.11-20.95 386.51-20.95 386.51-24.05 390.31-24.3 390.81-31.1 394.26-31.1 394.26-24.3 400.81-24.3 400.81-20.95 394.26-20.95 394.26-7.45Q394.26-5.2 395.09-3.98 395.91-2.75 398.01-2.75L398.01-2.75Q398.66-2.75 399.41-2.95 400.16-3.15 400.76-3.4L400.76-3.4 401.56-0.3Q400.56 0.05 399.39 0.33 398.21 0.6 397.06 0.6ZM410.86 0.6L410.86 0.6Q407.81 0.6 405.78-1.2 403.76-3 403.76-6.3L403.76-6.3Q403.76-10.3 407.31-12.43 410.86-14.55 418.66-15.4L418.66-15.4Q418.66-16.55 418.43-17.65 418.21-18.75 417.66-19.6 417.11-20.45 416.13-20.98 415.16-21.5 413.66-21.5L413.66-21.5Q411.56-21.5 409.71-20.7 407.86-19.9 406.41-18.9L406.41-18.9 404.81-21.75Q406.51-22.85 408.96-23.88 411.41-24.9 414.36-24.9L414.36-24.9Q418.81-24.9 420.81-22.18 422.81-19.45 422.81-14.9L422.81-14.9 422.81 0 419.41 0 419.06-2.9 418.91-2.9Q417.16-1.45 415.16-0.43 413.16 0.6 410.86 0.6ZM412.06-2.7L412.06-2.7Q413.81-2.7 415.36-3.53 416.91-4.35 418.66-5.95L418.66-5.95 418.66-12.7Q415.61-12.3 413.53-11.75 411.46-11.2 410.18-10.45 408.91-9.7 408.33-8.72 407.76-7.75 407.76-6.6L407.76-6.6Q407.76-4.5 409.01-3.6 410.26-2.7 412.06-2.7Z" opacity="1" transform="matrix(1,0,0,1,0,0)" fill="#c56e33" class="slogan-text-1" data-fill-palette-color="secondary" id="text-1"></path></svg></g></svg></g></svg></g></svg></g><g transform="matrix(1,0,0,1,434.40668527139803,0)"><svg viewBox="0 0 165.63637772055165 152.93942339190198" height="152.93942339190198" width="165.63637772055165"><g><svg xmlns="http://www.w3.org/2000/svg" xmlns:xlink="http://www.w3.org/1999/xlink" version="1.1" x="0" y="0" viewBox="4.9978437423706055 6.479676723480225 89.80431365966797 82.9203109741211" enable-background="new 0 0 100 100" xml:space="preserve" height="152.93942339190198" width="165.63637772055165" class="icon-icon-0" data-fill-palette-color="accent" id="icon-0"><path d="M91.4 44.8c2.8-10.9 3-22.3 3.4-34.2 0.1-3.2-3.3-5.2-6.1-3.5-7.4 4.3-14.8 8.6-21.5 13.9-1.7-0.4-11.6-1.8-17.7-1.8-6.5 0-14.9 1-17.3 1.6-6.6-5.2-13.9-9.4-21.2-13.7C8.3 5.5 4.9 7.4 5 10.6 5.3 22.5 5.6 34 8.3 44.8c0 0.4 0.1 0.7 0.3 1-0.7 2.7-1 5.5-1 8.2 0 5.9 1.8 11.5 4.9 16.5 0.9-0.4 1.9-0.7 2.8-1 7.1-2.2 14.8-2.3 22.1-1.5-7.2 0.6-14.4 0.7-21.4 2.8-0.9 0.3-1.9 0.6-2.8 1 0.6 0.9 1.3 1.8 2.1 2.7 0.1 0 0.2-0.1 0.3-0.1 6.5-3.2 14.2-4 21.4-4.2-6.9 1.5-13.9 2.5-20.4 5.4-0.1 0-0.2 0.1-0.3 0.1 0.7 0.7 1.4 1.5 2.2 2.1 0.3-0.2 0.7-0.4 1.1-0.6 0.3-0.2 0.7-0.4 1.1-0.5 0.4-0.2 0.7-0.3 1.1-0.5 0.4-0.2 0.7-0.3 1.1-0.5 0.3-0.1 0.6-0.2 0.9-0.3 0.3-0.1 0.6-0.2 0.9-0.3 0.3-0.1 0.5-0.2 0.8-0.3 0.6-0.2 1.2-0.4 1.8-0.5 0.4-0.1 0.8-0.2 1.2-0.3 0.2 0 0.3-0.1 0.5-0.1 0.6-0.1 1.2-0.3 1.8-0.4 0.6-0.1 1.2-0.2 1.8-0.3 0.6-0.1 1.2-0.2 1.8-0.3 0.6-0.1 1.2-0.2 1.8-0.2 0.3 0 0.7-0.1 1-0.1 0 0 0 0 0 0-0.5 0.2-1 0.3-1.5 0.5-2.1 0.6-4.3 1.2-6.4 1.9-0.5 0.2-1 0.3-1.5 0.5-0.5 0.2-1.1 0.4-1.6 0.6-0.1 0-0.1 0-0.2 0.1-0.4 0.1-0.8 0.3-1.1 0.4-0.4 0.2-0.8 0.3-1.1 0.5-0.5 0.2-1 0.4-1.5 0.6-0.2 0.1-0.3 0.1-0.5 0.2-0.7 0.3-1.3 0.7-2 1 7.6 6.4 18.2 10.5 29.9 10.5 11.9 0 22.6-4.1 30.2-10.8-5.3-2.8-11.2-4.2-16.9-6 6.2 0.6 12.6 1.9 18 5 0.7-0.7 1.4-1.4 2.1-2.1-6.4-2.8-13.3-3.8-20.1-5.2 7 0.2 14.7 1 21.1 4 0.7-0.9 1.4-1.7 2-2.6-0.7-0.3-1.4-0.5-2.1-0.7-7-2.1-14.2-2.3-21.3-2.8 7.3-0.8 15-0.7 22.1 1.5 0.7 0.2 1.4 0.5 2.1 0.8 3-4.9 4.7-10.4 4.7-16.2 0-2.5-0.3-5-0.8-7.5C91.1 46.1 91.4 45.5 91.4 44.8zM13.1 35.3c-0.7-5.9-1-11.7-1.2-17.1 0-0.9 1-1.5 1.8-1.1 3.8 2.2 7.5 4.5 11 6.8C19.9 26.7 15.9 30.6 13.1 35.3zM29.8 48.3c-0.4 2.5 0.2 4.8 1.6 6.3-2.8-1.2-5.5-4.2-6.3-6.7 0.9-2 4.3-4.1 7.9-4.8C31.4 44.1 30.2 46 29.8 48.3zM36.8 49.4c-0.3 3.2-1.8 5.7-1.8 5.7s-1.1-2.7-0.9-5.9c0.2-3.2 1.8-5.7 1.8-5.7S37 46.2 36.8 49.4zM53.2 62.9c1.5 0 2.3 1.3 1.6 2.3-1.7 1.8-2.9 3.5-3.7 5.2-0.7 1-2.5 1-3.2 0-0.8-1.6-2.1-3.4-3.7-5.2-0.7-1 0.2-2.3 1.6-2.3C48.3 63.1 50.8 63.1 53.2 62.9zM41 50.2c0.4-2.3-0.1-4.5-1.3-6.1 3.2 2 4.2 5.8 5.5 10.2-2.3 0.6-4.9 1.2-7.6 1.2C39.3 54.6 40.6 52.6 41 50.2zM58.9 79.3c-2.2 1.7-5.1 1.8-7.4 0.2-0.8-0.5-1.5-1.2-2-2-1.3 1.7-2.9 3-5.2 3.1-1.5 0.1-2.9-0.4-4.1-1.3-0.2-0.2-1.1-0.8-1.1-1.2 0-0.6 0.5-0.3 0.8-0.1 1 0.6 1.8 1.2 3 1.4 1.4 0.2 2.9-0.4 3.9-1.4 0.8-0.8 1.2-1.7 1.8-2.6 0.1-0.2 0.3-0.3 0.5-0.4 0.5-0.3 1.1-0.2 1.3 0.4 1 2.2 2.8 4.2 5.5 4 1.3-0.1 2.1-0.7 3.1-1.4 0.3-0.2 0.8-0.5 0.8 0.1C59.9 78.6 59.1 79.1 58.9 79.3zM53.9 54.4c1.3-4.4 2.3-8.2 5.4-10.2-1.2 1.5-1.7 3.7-1.3 6.1 0.4 2.4 1.8 4.4 3.5 5.4C58.8 55.6 56.2 55 53.9 54.4zM64.2 55.1c0 0-1.6-2.5-1.8-5.7-0.3-3.2 0.9-5.9 0.9-5.9s1.6 2.5 1.8 5.7C65.3 52.4 64.2 55.1 64.2 55.1zM67.7 54.6c1.4-1.5 2-3.9 1.6-6.3-0.4-2.3-1.6-4.1-3.2-5.2 3.6 0.7 7 2.8 7.9 4.8C73.2 50.5 70.6 53.4 67.7 54.6zM86.6 35.9c-2.8-4.8-6.8-9-11.8-11.9 3.6-2.4 7.4-4.7 11.3-7 0.8-0.5 1.9 0.1 1.8 1.1C87.7 23.8 87.4 29.7 86.6 35.9z" fill="#c56e33" data-fill-palette-color="accent"></path><path d="M37 72.5L37 72.5c-0.5 0.2-1 0.3-1.5 0.5C36 72.8 36.5 72.6 37 72.5z" fill="#c56e33" data-fill-palette-color="accent"></path><path d="M37.1 72.5C37.1 72.5 37.1 72.5 37.1 72.5 37 72.5 37.1 72.5 37.1 72.5L37.1 72.5z" fill="#c56e33" data-fill-palette-color="accent"></path></svg></g></svg></g></svg></g><defs></defs></svg><rect width="395.52" height="100.81043256853154" fill="none" stroke="none" visibility="hidden"></rect></g></svg>