<svg viewBox="0 0 395.52 106.11118701179063" height="106.11118701179063" width="395.52" class=""><g><svg viewBox="0 0 533.6127873510071 143.15909756898662" height="106.11118701179063" width="395.52"><g transform="matrix(1,0,0,1,138.09278735100713,0)"><svg viewBox="0 0 395.52 143.15909756898662" height="143.15909756898662" width="395.52"><g id="textblocktransform"><svg viewBox="0 0 395.52 143.15909756898662" height="143.15909756898662" width="395.52" id="textblock"><g><svg viewBox="0 0 395.52 101.52944437158456" height="101.52944437158456" width="395.52"><path d="M394.594 21.776C392.735 11.237 387.435 8.308 387.435 8.308 371.165-2.547 350.86-0.208 332.619 1.352 300.414 1.415 268.339 3.734 236.208 4.977 168.767 5.167 100.749 2.048 33.643 9.741 27.339 12.102-6.54 10.205 1.121 23.125 3.129 28.5 10.456 34.465 10.232 39.397 11.236 40.261 12.631 38.28 13.226 39.523 15.309 42.875 18.711 41.294 21.501 43.275 17.614 48.566 20.403 52.971 23.062 57.587 18.377 58.788 12.371 58.219 9.675 62.203 9.396 65.09 7.89 64.542 6.235 64.416 5.026 64.331 2.59 64.648 2.999 65.554 4.394 68.652-1.594 70.444 2.162 73.479-0.422 76.767 3.948 79.613 3.353 83.175 3.278 83.891 3.687 84.503 4.338 84.671 7.22 85.578 3.018 87.348 3.464 89.266 33.029 102.376 65.104 93.313 95.394 99.341 103.259 95.126 97.346 100.838 100.489 99.952 102.943 98.92 104.728 103.198 107.499 100.774 107.927 100.079 107.276 98.435 108.8 98.751 109.6 98.92 110.307 98.877 110.418 97.908 110.586 96.454 109.117 97.36 108.726 96.601 112.947 92.765 111.906 101.891 115.866 101.512 115.68 100.395 114.528 98.793 116.889 99.004 119.232 97.402 119.306 96.074 121.389 99.678 121.463 100.458 121.835 101.006 122.43 101.386 128.938 97.465 135.409 102.777 142.233 101.006 146.417 99.067 150.433 102.06 154.672 101.322 156.16 100.732 157.666 99.678 159.098 101.449 176.632 101.828 195.319 100.247 211.943 101.512 256.364 99.151 303.835 102.482 350.674 99.362 361.719 98.161 373.192 96.454 383.958 95.083 383.958 95.083 392.679 91.332 392.679 74.47S394.538 59.716 394.817 46.289C395.096 32.863 396.398 32.315 394.538 21.776Z" opacity="1" fill="#6f605b" data-fill-palette-color="tertiary"></path><g transform="matrix(1,0,0,1,55.76832,26.068561146666667)"><svg width="283.98335999999995" viewBox="1.9500000476837158 -43.70000076293945 315.6199951171875 54.900001525878906" height="49.392322078251226" data-palette-color="#ffffff"><path d="M14.95-35.25Q18.7-35.25 21.93-33.83 25.15-32.4 27.1-29.78 29.05-27.15 29.05-23.7L29.05-23.7Q29.05-20.55 27.35-18.13 25.65-15.7 22.68-14.4 19.7-13.1 15.9-13.1L15.9-13.1Q11.6-13.1 8.65-14.65L8.65-14.65 8.5-1.55Q8.5-0.65 7.98-0.15 7.45 0.35 6.55 0.35L6.55 0.35Q5.6 0.35 5.08-0.15 4.55-0.65 4.55-1.5L4.55-1.5Q4.55-3.8 4.65-8.3L4.65-8.3Q4.75-13.1 4.75-15.9L4.75-15.9Q4.75-21.05 4.55-27.05L4.55-27.05Q4.5-27.4 4.5-28.1L4.5-28.1 4.35-28Q3.85-27.75 3.5-27.75L3.5-27.75Q2.8-27.75 2.38-28.43 1.95-29.1 1.95-30L1.95-30Q1.95-30.6 2.35-30.98 2.75-31.35 3.55-31.75L3.55-31.75 4.4-32.25 4.4-33.05Q4.4-34.2 4.9-34.75 5.4-35.3 6.45-35.3L6.45-35.3Q7.35-35.3 7.85-35 8.35-34.7 8.35-34.2L8.35-34.2 8.35-34.1Q11.55-35.25 14.95-35.25L14.95-35.25ZM15.2-16.4Q18.05-16.4 20.23-17.35 22.4-18.3 23.6-20 24.8-21.7 24.8-23.85L24.8-23.85Q24.8-26.15 23.45-27.95 22.1-29.75 19.88-30.75 17.65-31.75 15-31.75L15-31.75Q12.25-31.75 8.4-30L8.4-30Q8.5-26.5 8.5-25.4L8.5-25.4Q8.5-24.3 8.6-21.9L8.6-21.9Q8.7-18.95 8.65-18L8.65-18Q11.45-16.4 15.2-16.4L15.2-16.4ZM46.55 0.2Q42.45 0.2 39.47-1.58 36.5-3.35 34.97-6.28 33.45-9.2 33.45-12.65L33.45-12.65Q33.45-16.2 35.05-19.18 36.65-22.15 39.6-23.9 42.55-25.65 46.4-25.65L46.4-25.65Q49.8-25.65 52.5-24.28 55.2-22.9 56.7-20.45 58.2-18 58.2-14.85L58.2-14.85Q58.2-13.35 57.85-12.73 57.5-12.1 56.1-12.05L56.1-12.05 37.05-11.65Q37.05-9.75 38.2-7.75 39.35-5.75 41.47-4.4 43.6-3.05 46.4-3.05L46.4-3.05Q48.5-3.05 50-3.68 51.5-4.3 52.35-5.1 53.2-5.9 54.4-7.35L54.4-7.35Q54.75-7.8 55.5-7.8L55.5-7.8Q56.15-7.8 56.72-7.3 57.3-6.8 57.3-6.15L57.3-6.15Q57.3-5.65 56.9-5.1L56.9-5.1Q55.3-2.9 53.02-1.35 50.75 0.2 46.55 0.2L46.55 0.2ZM37.05-14.65L54.45-15.1Q54.95-15.1 54.95-15.8L54.95-15.8Q54.95-18.8 52.55-20.68 50.15-22.55 46.5-22.55L46.5-22.55Q43.75-22.55 41.6-21.15 39.45-19.75 38.25-17.85 37.05-15.95 37.05-14.65L37.05-14.65ZM79.3-8.15Q80.2-8.15 80.57-7.73 80.95-7.3 80.95-6.2L80.95-6.2Q80.95-3.6 79.22-1.8 77.5 0 74.8 0L74.8 0Q71.05 0 69.42-3.3 67.8-6.6 67.8-13.55L67.8-13.55Q67.8-16.15 68.05-19.5L68.05-19.5Q67.5-19.55 64.95-19.75L64.95-19.75Q63.45-19.9 63.45-21.4L63.45-21.4Q63.45-22.9 64.9-22.9L64.9-22.9Q65.3-22.9 66.59-22.8L66.59-22.8Q67.7-22.7 68.3-22.7L68.3-22.7Q68.65-26.4 69.5-32L69.5-32Q69.59-32.75 70.02-33.13 70.45-33.5 71.4-33.5L71.4-33.5Q72.34-33.5 72.9-33 73.45-32.5 73.34-31.75L73.34-31.75 73.09-30.1Q72.34-24.3 72.15-22.5L72.15-22.5 76.15-22.4Q76.9-22.4 77.27-22.1 77.65-21.8 77.65-21.05L77.65-21.05Q77.65-20.1 77.27-19.78 76.9-19.45 75.84-19.4L75.84-19.4Q74.3-19.35 71.84-19.35L71.84-19.35Q71.59-16.2 71.59-13.55L71.59-13.55Q71.59-8.7 72.37-5.95 73.15-3.2 75.2-3.2L75.2-3.2Q76.3-3.2 76.95-4.05 77.59-4.9 77.7-6.6L77.7-6.6Q77.75-7.4 78.02-7.78 78.3-8.15 79.3-8.15L79.3-8.15ZM129.94-1.7Q130.09-1.25 130.09-1.1L130.09-1.1Q130.09-0.3 129.47 0.1 128.84 0.5 127.94 0.5L127.94 0.5Q127.29 0.5 126.79 0.2 126.29-0.1 126.14-0.6L126.14-0.6 123.84-8.35 109.59-8.45 107.14-0.8Q106.74 0.45 105.29 0.45L105.29 0.45Q104.44 0.45 103.82 0 103.19-0.45 103.19-1.15L103.19-1.15Q103.19-1.25 103.29-1.75L103.29-1.75Q108.34-16.55 111.84-27.5L111.84-27.5Q112.64-29.9 112.64-29.9L112.64-29.9Q113.64-32.95 114.64-34.25 115.64-35.55 117.09-35.55L117.09-35.55Q118.49-35.55 119.39-34.4 120.29-33.25 121.19-30.4L121.19-30.4Q123.09-24.5 125.94-15.1L125.94-15.1 126.79-12.25 128.19-12.25Q128.99-12.25 129.52-11.7 130.04-11.15 130.04-10.3L130.04-10.3Q130.04-8.35 128.49-8.35L128.49-8.35 127.94-8.35Q129.09-4.4 129.94-1.7L129.94-1.7ZM110.89-12.45L122.74-12.3 121.24-17.45Q119.49-23.5 118.54-26.7L118.54-26.7Q117.94-28.7 117.59-29.6 117.24-30.5 116.94-30.5L116.94-30.5Q116.69-30.5 116.39-29.73 116.09-28.95 115.39-26.75L115.39-26.75 112.94-19.05 110.89-12.45ZM149.74 0.2Q146.24 0.2 143.34-1.2 140.44-2.6 138.69-5.5 136.94-8.4 136.94-12.7L136.94-12.7Q136.94-16.6 138.54-19.45 140.14-22.3 143.06-23.83 145.99-25.35 149.89-25.35L149.89-25.35Q152.69-25.35 154.81-24.53 156.94-23.7 158.19-22.4L158.19-22.4 158.19-23.45Q158.39-31.3 158.51-34.9 158.64-38.5 158.99-42.1L158.99-42.1Q159.09-42.8 159.59-43.25 160.09-43.7 160.89-43.7L160.89-43.7Q161.79-43.7 162.34-43.23 162.89-42.75 162.84-42L162.84-42Q162.49-38.35 162.19-29.45 161.89-20.55 161.89-13.4L161.89-13.4Q161.89-6.1 162.24-5L162.24-5Q162.54-3.9 162.96-3.18 163.39-2.45 163.89-2.45L163.89-2.45Q164.04-2.45 164.04-1.9L164.04-1.9Q164.04-1.15 163.39-0.55 162.74 0.05 161.94 0.05L161.94 0.05Q161.39 0.05 160.99-0.2L160.99-0.2Q160.29-0.6 159.56-1.53 158.84-2.45 158.59-4.1L158.59-4.1Q157.34-2.1 154.99-0.95 152.64 0.2 149.74 0.2L149.74 0.2ZM149.64-3.2Q151.79-3.2 153.71-4.13 155.64-5.05 156.84-6.63 158.04-8.2 158.04-10.05L158.04-10.05Q158.04-12.25 158.09-13.55L158.09-13.55 158.14-17.7Q157.29-19.3 155.04-20.65 152.79-22 149.89-22L149.89-22Q145.74-22 143.24-19.5 140.74-17 140.74-12.55L140.74-12.55Q140.74-9.35 142.06-7.25 143.39-5.15 145.44-4.17 147.49-3.2 149.64-3.2L149.64-3.2ZM180.69 0.05Q175.04 0.05 171.31-2.95 167.59-5.95 167.59-12.35L167.59-12.35Q167.59-16.35 169.11-19.38 170.64-22.4 173.54-24.1 176.44-25.8 180.39-25.8L180.39-25.8Q184.19-25.8 187.21-24.23 190.24-22.65 191.96-19.63 193.69-16.6 193.69-12.4L193.69-12.4Q193.69-6.3 190.11-3.13 186.54 0.05 180.69 0.05L180.69 0.05ZM180.59-3.1Q184.59-3.1 187.21-5.48 189.84-7.85 189.84-12.45L189.84-12.45Q189.84-15.45 188.66-17.78 187.49-20.1 185.36-21.38 183.24-22.65 180.49-22.65L180.49-22.65Q176.39-22.65 173.91-19.85 171.44-17.05 171.44-12.45L171.44-12.45Q171.44-7.6 174.09-5.35 176.74-3.1 180.59-3.1L180.59-3.1ZM211.68-25.65Q215.03-25.65 217.81-24.23 220.58-22.8 222.23-19.93 223.88-17.05 223.88-12.85L223.88-12.85Q223.88-8.8 222.31-5.88 220.73-2.95 217.93-1.45 215.13 0.05 211.53 0.05L211.53 0.05Q208.58 0.05 206.18-0.8 203.78-1.65 202.63-2.5L202.63-2.5 202.48 2.55 202.28 9.6Q202.23 10.35 201.71 10.78 201.18 11.2 200.33 11.2L200.33 11.2Q199.43 11.2 198.96 10.73 198.48 10.25 198.48 9.45L198.48 9.45Q198.58 5.4 198.68 3.15L198.68 3.15 198.83-2.3Q198.98-8.25 198.98-17.55L198.98-17.55Q198.98-19.1 198.63-20.13 198.28-21.15 197.53-22.05L197.53-22.05Q197.48-22.1 197.26-22.33 197.03-22.55 197.03-23L197.03-23Q197.03-23.65 197.76-24.23 198.48-24.8 199.13-24.8L199.13-24.8Q199.48-24.8 199.76-24.63 200.03-24.45 200.08-24.4L200.08-24.4Q200.43-24.1 201.06-23.1 201.68-22.1 202.08-21.15L202.08-21.15Q203.28-22.9 205.73-24.28 208.18-25.65 211.68-25.65L211.68-25.65ZM211.48-3.15Q215.28-3.15 217.66-5.7 220.03-8.25 220.03-12.9L220.03-12.9Q220.03-17.75 217.58-20.05 215.13-22.35 211.53-22.35L211.53-22.35Q209.03-22.35 207.03-21.23 205.03-20.1 203.93-18.6 202.83-17.1 202.83-16.2L202.83-16.2Q202.83-10.7 202.78-6.75L202.78-6.75Q203.03-6.1 204.38-5.23 205.73-4.35 207.66-3.75 209.58-3.15 211.48-3.15L211.48-3.15ZM244.08-8.15Q244.98-8.15 245.36-7.73 245.73-7.3 245.73-6.2L245.73-6.2Q245.73-3.6 244.01-1.8 242.28 0 239.58 0L239.58 0Q235.83 0 234.21-3.3 232.58-6.6 232.58-13.55L232.58-13.55Q232.58-16.15 232.83-19.5L232.83-19.5Q232.28-19.55 229.73-19.75L229.73-19.75Q228.23-19.9 228.23-21.4L228.23-21.4Q228.23-22.9 229.68-22.9L229.68-22.9Q230.08-22.9 231.38-22.8L231.38-22.8Q232.48-22.7 233.08-22.7L233.08-22.7Q233.43-26.4 234.28-32L234.28-32Q234.38-32.75 234.81-33.13 235.23-33.5 236.18-33.5L236.18-33.5Q237.13-33.5 237.68-33 238.23-32.5 238.13-31.75L238.13-31.75 237.88-30.1Q237.13-24.3 236.93-22.5L236.93-22.5 240.93-22.4Q241.68-22.4 242.06-22.1 242.43-21.8 242.43-21.05L242.43-21.05Q242.43-20.1 242.06-19.78 241.68-19.45 240.63-19.4L240.63-19.4Q239.08-19.35 236.63-19.35L236.63-19.35Q236.38-16.2 236.38-13.55L236.38-13.55Q236.38-8.7 237.16-5.95 237.93-3.2 239.98-3.2L239.98-3.2Q241.08-3.2 241.73-4.05 242.38-4.9 242.48-6.6L242.48-6.6Q242.53-7.4 242.81-7.78 243.08-8.15 244.08-8.15L244.08-8.15ZM256.68-28.3Q255.38-28.3 254.48-29.18 253.58-30.05 253.58-31.4L253.58-31.4Q253.58-32.75 254.48-33.63 255.38-34.5 256.78-34.5L256.78-34.5Q258.13-34.5 259-33.65 259.88-32.8 259.88-31.45L259.88-31.45Q259.88-30.1 258.95-29.2 258.03-28.3 256.68-28.3L256.68-28.3ZM255.93-0.3Q255.03-0.3 254.5-0.75 253.98-1.2 253.98-1.95L253.98-1.95 254.48-23.2Q254.48-24.05 255-24.5 255.53-24.95 256.43-24.95L256.43-24.95Q257.33-24.95 257.85-24.5 258.38-24.05 258.38-23.15L258.38-23.15 257.88-1.95Q257.83-1.15 257.3-0.73 256.78-0.3 255.93-0.3L255.93-0.3ZM278.48 0.05Q272.83 0.05 269.1-2.95 265.38-5.95 265.38-12.35L265.38-12.35Q265.38-16.35 266.9-19.38 268.43-22.4 271.33-24.1 274.23-25.8 278.18-25.8L278.18-25.8Q281.98-25.8 285-24.23 288.03-22.65 289.75-19.63 291.48-16.6 291.48-12.4L291.48-12.4Q291.48-6.3 287.9-3.13 284.33 0.05 278.48 0.05L278.48 0.05ZM278.38-3.1Q282.38-3.1 285-5.48 287.63-7.85 287.63-12.45L287.63-12.45Q287.63-15.45 286.45-17.78 285.28-20.1 283.15-21.38 281.03-22.65 278.28-22.65L278.28-22.65Q274.18-22.65 271.7-19.85 269.23-17.05 269.23-12.45L269.23-12.45Q269.23-7.6 271.88-5.35 274.53-3.1 278.38-3.1L278.38-3.1ZM309.12-25.45Q317.57-25.45 317.57-13.5L317.57-13.5 317.57-1.8Q317.57-0.05 315.72-0.05L315.72-0.05Q313.72-0.05 313.72-1.75L313.72-1.75 313.72-13.55Q313.72-17.95 312.72-20.03 311.72-22.1 309.12-22.1L309.12-22.1Q306.37-22.1 304.62-20 302.87-17.9 302.17-14.5L302.17-14.5Q301.72-12.2 301.72-8.85L301.72-8.85 301.77-1.45Q301.77-0.75 301.27-0.38 300.77 0 299.92 0L299.92 0Q298.97 0 298.47-0.4 297.97-0.8 297.97-1.45L297.97-1.45Q297.97-5.9 297.77-12.3L297.77-12.3Q297.62-16 297.62-18.85L297.62-18.85Q297.62-20.1 297.35-20.83 297.07-21.55 296.27-22.85L296.27-22.85Q296.07-23.15 296.07-23.55L296.07-23.55Q296.07-24.15 296.75-24.68 297.42-25.2 298.07-25.2L298.07-25.2Q298.72-25.2 299.42-24.25L299.42-24.25Q299.97-23.45 300.45-22.33 300.92-21.2 300.92-20.2L300.92-20.2 300.92-19.65Q301.82-22.15 303.82-23.8 305.82-25.45 309.12-25.45L309.12-25.45Z" opacity="1" transform="matrix(1,0,0,1,0,0)" fill="#ffffff" class="wordmark-text-0" data-fill-palette-color="quaternary" id="text-0"></path></svg></g></svg></g><g transform="matrix(1,0,0,1,0,113.1897861985298)"><svg viewBox="0 0 300.5952 29.96931137045682" height="29.96931137045682" width="300.5952"><g transform="matrix(1,0,0,1,0,0)"><svg width="300.5952" viewBox="0.800000011920929 -33.75 449.80999755859375 44.849998474121094" height="29.96931137045682" data-palette-color="#f36527"><path d="M26.4-0.75Q25.75-1.6 25.3-2.63 24.85-3.65 24.35-5.1L24.35-5.1Q24.25-5.35 23.78-6.6 23.3-7.85 22.7-8.75L22.7-8.75Q19.55-8.3 17.55-8.3L17.55-8.3Q16.45-8.3 15.13-8.38 13.8-8.45 13.15-8.45L13.15-8.45Q10.65-8.65 9.15-8.65L9.15-8.65Q8.55-7.85 8.13-6.95 7.7-6.05 7.05-4.25L7.05-4.25Q6.15-1.65 5.5-0.55L5.5-0.55Q5.05 0.2 3.75 0.2L3.75 0.2Q2.65 0.2 1.73-0.28 0.8-0.75 0.8-1.6L0.8-1.6Q1.2-3.5 2.08-5.63 2.95-7.75 4.6-11.3L4.6-11.3 6.6-16.2Q8.25-20.4 9.63-23.4 11-26.4 13.25-30.5L13.25-30.5Q13.55-31.1 14.25-31.53 14.95-31.95 15.8-31.95L15.8-31.95Q16.75-31.95 17.18-31.83 17.6-31.7 17.85-31.43 18.1-31.15 18.6-30.3L18.6-30.3Q20.3-27.65 21.53-24.85 22.75-22.05 24.65-17.1L24.65-17.1 25.7-14.45Q27.1-10.85 28.13-8.43 29.15-6 30.4-4L30.4-4Q31.2-2.7 31.2-2.2L31.2-2.2Q31.2-1 30.48-0.38 29.75 0.25 28.6 0.25L28.6 0.25Q27.15 0.25 26.4-0.75L26.4-0.75ZM21.25-12.85Q20.45-14.55 18.95-18.75L18.95-18.75Q17.4-23.25 15.85-25.9L15.85-25.9Q14.9-23.5 13.05-19.7L13.05-19.7Q11.8-17.35 10.2-12.9L10.2-12.9Q13.4-12.5 17.1-12.5L17.1-12.5Q19.75-12.5 21.25-12.85L21.25-12.85ZM54.6-31.3Q54.6-30.8 54.35-28.55L54.35-28.55Q53.8-23.05 53.8-17.4L53.8-17.4Q53.8-12.45 53.95-9.85 54.1-7.25 54.7-5.88 55.3-4.5 56.55-4.5L56.55-4.5Q58.95-4.5 58.95-2.9L58.95-2.9Q58.95-1.85 57.9-1.13 56.85-0.4 55.6-0.4L55.6-0.4Q54.1-0.4 52.8-1.1 51.5-1.8 50.75-3.25L50.75-3.25Q49.7-1.7 47.72-0.78 45.75 0.15 43.9 0.15L43.9 0.15Q41.05 0.15 38.85-1.05 36.65-2.25 35.45-4.33 34.25-6.4 34.25-8.9L34.25-8.9Q34.25-11.3 34.82-13.53 35.4-15.75 36.4-17.2L36.4-17.2Q37.75-19.1 40.02-20.23 42.3-21.35 44.5-21.35L44.5-21.35Q45.85-21.35 47.05-20.83 48.25-20.3 49.15-19.55L49.15-19.55Q49.15-22.9 49.1-23.75L49.1-23.75 49.1-24.8Q49.1-29.45 49.7-31.6L49.7-31.6Q50.25-33.7 52.35-33.7L52.35-33.7Q53.5-33.7 54.05-33.2 54.6-32.7 54.6-31.3L54.6-31.3ZM39.2-9Q39.2-6.7 40.52-5.3 41.85-3.9 43.7-3.9L43.7-3.9Q46.35-3.9 47.62-5.55 48.9-7.2 48.9-9.8L48.9-9.8 48.85-14.75Q46.9-16.9 44.8-16.9L44.8-16.9Q43.35-16.9 42.07-16.18 40.8-15.45 40.05-14L40.05-14Q39.2-12.35 39.2-9L39.2-9ZM82.05-16.05Q82.44-15.35 82.69-14.03 82.94-12.7 82.94-11.65L82.94-11.65Q82.94-9.7 82.09-6.1L82.09-6.1Q78.64 0.2 71.89 0.2L71.89 0.2Q69.39 0.2 66.8-1.45 64.19-3.1 63.2-5.25L63.2-5.25Q61.84-9.55 61.84-10.7L61.84-10.7Q61.84-12.7 62.72-14.95 63.59-17.2 64.94-18.85L64.94-18.85Q65.8-20 68-20.83 70.19-21.65 72-21.65L72-21.65Q75.5-21.65 77.94-20.33 80.39-19 82.05-16.05L82.05-16.05ZM77.69-8Q77.94-8.65 77.94-11.35L77.94-11.35Q77.94-12.8 77.42-14.2 76.89-15.6 75.89-16.6L75.89-16.6Q75.8-16.7 75.34-16.93 74.89-17.15 74.12-17.38 73.34-17.6 72.34-17.6L72.34-17.6Q69.55-17.6 68.25-15.35 66.94-13.1 66.94-10.25L66.94-10.25Q66.94-9.75 67.22-8.35 67.5-6.95 67.69-6.6L67.69-6.6Q67.84-6.25 68.47-5.63 69.09-5 70.02-4.53 70.94-4.05 71.94-4.05L71.94-4.05Q74.19-4.05 75.55-5.13 76.89-6.2 77.69-8L77.69-8ZM88.99-17.4Q88.54-17.4 88.14-17.32 87.74-17.25 87.34-17.25L87.34-17.25Q86.79-17.25 86.32-17.75 85.84-18.25 85.84-18.65L85.84-18.65Q85.84-19.95 87.14-20.68 88.44-21.4 89.79-21.4L89.79-21.4Q90.94-21.4 92.17-20.63 93.39-19.85 93.99-18.65L93.99-18.65Q95.29-20.2 97.19-20.9 99.09-21.6 101.14-21.6L101.14-21.6Q103.44-21.6 105.42-20.15 107.39-18.7 108.54-16.48 109.69-14.25 109.69-12.05L109.69-12.05Q109.69-9.9 109.24-8.22 108.79-6.55 107.64-4.85L107.64-4.85Q106.34-3.05 104.17-1.9 101.99-0.75 98.99-0.75L98.99-0.75Q98.19-0.75 97.04-1.18 95.89-1.6 95.14-2.1L95.14-2.1Q94.79 1.3 94.79 3.8L94.79 3.8Q94.79 5.3 94.94 6.65L94.94 6.65Q95.04 8.25 95.04 8.95L95.04 8.95Q95.04 10.05 94.29 10.58 93.54 11.1 92.64 11.1L92.64 11.1Q90.84 11.1 90.27 10.13 89.69 9.15 89.69 7.35L89.69 7.35Q89.89 3.05 90.19-0.6L90.19-0.6Q90.49-5.1 90.49-14.5L90.49-14.5Q90.49-15.4 90.14-16.4 89.79-17.4 88.99-17.4L88.99-17.4ZM95.34-7.05Q95.59-6.1 96.77-5.48 97.94-4.85 98.89-4.85L98.89-4.85Q101.74-4.85 103.14-6.4L103.14-6.4Q104.19-7.5 104.52-8.55 104.84-9.6 104.84-11.9L104.84-11.9Q104.84-13.7 104.14-14.93 103.44-16.15 102.44-16.73 101.44-17.3 100.54-17.3L100.54-17.3Q98.49-17.3 97.22-16.07 95.94-14.85 95.59-12.75L95.59-12.75Q95.34-11.1 95.34-7.05L95.34-7.05ZM116.69-17.1L114.29-17.3Q113.59-17.4 113.17-17.9 112.74-18.4 112.74-19.1L112.74-19.1Q112.74-19.45 112.92-19.85 113.09-20.25 113.44-20.55L113.44-20.55Q114.09-21.2 116.94-21.2L116.94-21.2Q117.34-23.15 117.34-25.15L117.34-25.15Q117.34-25.9 117.29-26.45 117.24-27 117.24-27.3L117.24-27.3Q117.24-28.4 118.06-28.95 118.89-29.5 119.94-29.5L119.94-29.5Q121.24-29.5 121.72-28.85 122.19-28.2 122.19-26.45L122.19-26.45Q122.19-23.85 121.74-21.35L121.74-21.35Q122.54-21.35 123.94-21.45L123.94-21.45Q125.84-21.55 126.69-21.55L126.69-21.55Q127.54-21.55 128.16-21.13 128.79-20.7 128.79-19.95L128.79-19.95Q128.79-18 127.04-17.65L127.04-17.65Q125.19-17.2 121.29-17.1L121.29-17.1Q121.14-15.15 121.14-12.85L121.14-12.85Q121.14-9.25 121.59-6.95L121.59-6.95Q121.89-5.35 122.62-4.63 123.34-3.9 124.79-3.9L124.79-3.9Q125.64-3.9 126.54-4.35L126.54-4.35Q127.14-4.7 127.64-4.7L127.64-4.7Q128.34-4.7 128.66-4.25 128.99-3.8 128.99-3.05L128.99-3.05Q128.99-1.65 127.49-0.73 125.99 0.2 123.64 0.2L123.64 0.2Q122.19 0.2 120.72-0.5 119.24-1.2 118.24-2.25L118.24-2.25Q118.09-2.4 117.69-3.4 117.29-4.4 116.99-5.55L116.99-5.55Q116.49-7.9 116.49-12.15L116.49-12.15Q116.49-14 116.69-17.1L116.69-17.1ZM155.84-2.4Q155.84-1.3 154.66-0.55 153.49 0.2 152.49 0.2L152.49 0.2Q150.59 0.2 149.46-0.28 148.34-0.75 147.39-2.05L147.39-2.05Q146.09-0.9 143.84-0.33 141.59 0.25 139.69 0.25L139.69 0.25Q136.59 0.25 134.59-1.43 132.59-3.1 132.59-6.35L132.59-6.35Q132.59-7.75 133.34-8.93 134.09-10.1 135.39-11L135.39-11Q136.84-11.95 138.69-12.48 140.54-13 142.54-13L142.54-13Q143.59-13 145.04-12.6 146.49-12.2 147.29-11.75L147.29-11.75 147.29-12.55Q147.29-15.25 145.99-16.28 144.69-17.3 141.79-17.3L141.79-17.3Q140.94-17.3 140.11-16.95 139.29-16.6 138.24-16L138.24-16Q136.84-15.25 135.59-15.25L135.59-15.25Q135.14-15.25 134.74-15.88 134.34-16.5 134.34-17L134.34-17Q134.34-18.45 135.71-19.5 137.09-20.55 138.99-21.08 140.89-21.6 142.39-21.6L142.39-21.6Q143.89-21.6 145.84-21.03 147.79-20.45 149.04-19.45L149.04-19.45Q150.54-18.15 151.36-16.43 152.19-14.7 152.19-12.65L152.19-12.65Q152.19-12 152.09-10.7L152.09-10.7Q151.99-9.3 151.99-8.3L151.99-8.3Q151.99-7.85 151.89-6.95L151.89-6.95Q151.79-5.85 151.79-5.2L151.79-5.2Q151.79-4.6 152.24-4.17 152.69-3.75 153.29-3.75L153.29-3.75 154.69-3.8Q155.24-3.8 155.54-3.4 155.84-3 155.84-2.4L155.84-2.4ZM139.74-3.7Q141.89-3.7 143.34-4.15 144.79-4.6 146.84-5.8L146.84-5.8Q147.04-6.65 147.09-8.05L147.09-8.05Q144.34-9.35 142.54-9.35L142.54-9.35Q140.49-9.35 138.89-8.6 137.29-7.85 137.29-5.95L137.29-5.95Q137.29-5 138.09-4.35 138.89-3.7 139.74-3.7L139.74-3.7ZM176.58-29Q176.58-27.55 176.48-25.15L176.48-25.15 176.43-21.9Q176.43-17.15 177.13-13.95L177.13-13.95Q178.13-9.45 180.13-7L180.13-7Q181.98-4.85 184.68-4.85L184.68-4.85Q186.78-4.85 188.43-6.13 190.08-7.4 190.98-9.3L190.98-9.3Q192.48-12.4 192.48-16.95L192.48-16.95Q192.48-19.7 192.13-23.45L192.13-23.45Q191.83-27.65 191.83-29.75L191.83-29.75Q191.83-30.85 193.13-31.18 194.43-31.5 195.83-31.5L195.83-31.5Q196.33-31.5 196.98-30.85 197.63-30.2 197.63-29.45L197.63-29.45Q197.63-27.95 197.48-26.6L197.48-26.6Q197.38-25.1 197.38-24.5L197.38-24.5Q197.38-22.6 197.58-19.2L197.58-19.2Q197.63-18.35 197.68-17.15 197.73-15.95 197.73-14.4L197.73-14.4Q197.73-11 196.11-7.63 194.48-4.25 191.58-2.08 188.68 0.1 185.03 0.1L185.03 0.1Q179.43 0.1 176.28-3.53 173.13-7.15 171.98-12.9L171.98-12.9Q171.33-16.2 171.16-19.8 170.98-23.4 170.98-29.45L170.98-29.45Q170.98-30.25 171.76-30.95 172.53-31.65 173.43-31.65L173.43-31.65Q176.58-31.65 176.58-29L176.58-29ZM226.33-3.85Q226.58-3.75 227.13-3.6 227.68-3.45 227.93-3.3 228.18-3.15 228.18-2.85L228.18-2.85Q228.23-1.65 227.31-0.88 226.38-0.1 225.13-0.1L225.13-0.1Q223.18-0.1 222.08-1.15 220.98-2.2 220.48-4.35L220.48-4.35Q220.28-5.2 220.28-6.7L220.28-6.7Q220.28-7.55 220.38-9.45L220.38-9.45Q220.48-11.45 220.48-12.65L220.48-12.65Q220.48-14.4 219.51-15.73 218.53-17.05 216.78-17.05L216.78-17.05Q215.73-17.05 214.58-16.43 213.43-15.8 212.98-14.9L212.98-14.9Q212.23-13.45 211.93-11.75L211.93-11.75Q211.38-8.75 211.38-5.5L211.38-5.5Q211.38-3.95 211.43-3.1L211.43-3.1Q211.43-2.9 211.46-2.33 211.48-1.75 211.36-1.28 211.23-0.8 210.93-0.4L210.93-0.4Q210.68-0.15 210.16 0.03 209.63 0.2 209.18 0.2L209.18 0.2Q208.48 0.2 207.43-0.4 206.38-1 206.23-1.75L206.23-1.75 206.18-2.6Q206.18-3.05 206.28-3.65L206.28-3.65Q206.88-7.15 206.88-9.75L206.88-9.75Q206.88-10.9 206.83-11.55L206.83-11.55 206.78-13.9Q206.78-15.1 206.18-16.23 205.58-17.35 204.78-17.35L204.78-17.35Q204.53-17.35 204.08-17.18 203.63-17 203.33-17L203.33-17Q202.83-17 202.26-17.5 201.68-18 201.68-18.55L201.68-18.55Q201.68-19.6 202.38-20.25L202.38-20.25Q203.13-20.85 203.86-21.2 204.58-21.55 205.53-21.55L205.53-21.55Q206.33-21.55 206.83-21.4 207.33-21.25 208.18-20.75L208.18-20.75Q208.63-20.5 209.23-19.65 209.83-18.8 210.23-17.25L210.23-17.25Q211.53-19.65 213.46-20.63 215.38-21.6 218.38-21.6L218.38-21.6Q219.53-21.6 220.86-20.85 222.18-20.1 223.13-19.1L223.13-19.1Q224.03-18 224.63-16.38 225.23-14.75 225.23-13.45L225.23-13.45Q225.23-12.7 225.13-11L225.13-11Q224.98-9.65 224.98-8.15L224.98-8.15Q224.98-4.65 226.33-3.85L226.33-3.85ZM266.78-0.75Q266.13-1.6 265.68-2.63 265.23-3.65 264.73-5.1L264.73-5.1Q264.63-5.35 264.15-6.6 263.68-7.85 263.08-8.75L263.08-8.75Q259.93-8.3 257.93-8.3L257.93-8.3Q256.83-8.3 255.5-8.38 254.18-8.45 253.53-8.45L253.53-8.45Q251.03-8.65 249.53-8.65L249.53-8.65Q248.93-7.85 248.5-6.95 248.08-6.05 247.43-4.25L247.43-4.25Q246.53-1.65 245.88-0.55L245.88-0.55Q245.43 0.2 244.13 0.2L244.13 0.2Q243.03 0.2 242.1-0.28 241.18-0.75 241.18-1.6L241.18-1.6Q241.58-3.5 242.45-5.63 243.33-7.75 244.98-11.3L244.98-11.3 246.98-16.2Q248.63-20.4 250-23.4 251.38-26.4 253.63-30.5L253.63-30.5Q253.93-31.1 254.63-31.53 255.33-31.95 256.18-31.95L256.18-31.95Q257.13-31.95 257.55-31.83 257.98-31.7 258.23-31.43 258.48-31.15 258.98-30.3L258.98-30.3Q260.68-27.65 261.9-24.85 263.13-22.05 265.03-17.1L265.03-17.1 266.08-14.45Q267.48-10.85 268.5-8.43 269.53-6 270.78-4L270.78-4Q271.58-2.7 271.58-2.2L271.58-2.2Q271.58-1 270.85-0.38 270.13 0.25 268.98 0.25L268.98 0.25Q267.53 0.25 266.78-0.75L266.78-0.75ZM261.63-12.85Q260.83-14.55 259.33-18.75L259.33-18.75Q257.78-23.25 256.23-25.9L256.23-25.9Q255.28-23.5 253.43-19.7L253.43-19.7Q252.18-17.35 250.58-12.9L250.58-12.9Q253.78-12.5 257.48-12.5L257.48-12.5Q260.13-12.5 261.63-12.85L261.63-12.85ZM297.82-3.85Q298.07-3.75 298.62-3.6 299.17-3.45 299.42-3.3 299.67-3.15 299.67-2.85L299.67-2.85Q299.72-1.65 298.8-0.88 297.87-0.1 296.62-0.1L296.62-0.1Q294.67-0.1 293.57-1.15 292.47-2.2 291.97-4.35L291.97-4.35Q291.77-5.2 291.77-6.7L291.77-6.7Q291.77-7.55 291.87-9.45L291.87-9.45Q291.97-11.45 291.97-12.65L291.97-12.65Q291.97-14.4 291-15.73 290.02-17.05 288.27-17.05L288.27-17.05Q287.22-17.05 286.07-16.43 284.92-15.8 284.47-14.9L284.47-14.9Q283.72-13.45 283.42-11.75L283.42-11.75Q282.87-8.75 282.87-5.5L282.87-5.5Q282.87-3.95 282.92-3.1L282.92-3.1Q282.92-2.9 282.95-2.33 282.97-1.75 282.85-1.28 282.72-0.8 282.42-0.4L282.42-0.4Q282.17-0.15 281.65 0.03 281.12 0.2 280.67 0.2L280.67 0.2Q279.97 0.2 278.92-0.4 277.87-1 277.72-1.75L277.72-1.75 277.67-2.6Q277.67-3.05 277.77-3.65L277.77-3.65Q278.37-7.15 278.37-9.75L278.37-9.75Q278.37-10.9 278.32-11.55L278.32-11.55 278.27-13.9Q278.27-15.1 277.67-16.23 277.07-17.35 276.27-17.35L276.27-17.35Q276.02-17.35 275.57-17.18 275.12-17 274.82-17L274.82-17Q274.32-17 273.75-17.5 273.17-18 273.17-18.55L273.17-18.55Q273.17-19.6 273.87-20.25L273.87-20.25Q274.62-20.85 275.35-21.2 276.07-21.55 277.02-21.55L277.02-21.55Q277.82-21.55 278.32-21.4 278.82-21.25 279.67-20.75L279.67-20.75Q280.12-20.5 280.72-19.65 281.32-18.8 281.72-17.25L281.72-17.25Q283.02-19.65 284.95-20.63 286.87-21.6 289.87-21.6L289.87-21.6Q291.02-21.6 292.35-20.85 293.67-20.1 294.62-19.1L294.62-19.1Q295.52-18 296.12-16.38 296.72-14.75 296.72-13.45L296.72-13.45Q296.72-12.7 296.62-11L296.62-11Q296.47-9.65 296.47-8.15L296.47-8.15Q296.47-4.65 297.82-3.85L297.82-3.85ZM305.82-32.1Q307.57-31.95 308.87-31.18 310.17-30.4 310.17-28.85L310.17-28.85Q310.17-27.7 309.1-27.03 308.02-26.35 306.52-26.35L306.52-26.35Q305.07-26.35 304.52-27.1 303.97-27.85 303.97-28.65L303.97-28.65Q303.97-30.15 304.3-31.15 304.62-32.15 305.82-32.1L305.82-32.1ZM309.82-18.95L309.82-9.95 309.82-8.5Q309.82-6.55 309.94-4.83 310.07-3.1 310.27-1.35L310.27-1.35Q310.22-0.85 309.52-0.33 308.82 0.2 308.27 0.2L308.27 0.2Q307.32 0.2 306.35-0.18 305.37-0.55 305.17-1.1L305.17-1.1Q304.87-2.7 304.87-3.95L304.87-3.95Q304.87-8.05 304.62-13.15L304.62-13.15Q304.42-17.65 304.42-19.45L304.42-19.45Q304.42-20.35 305.32-21 306.22-21.65 307.22-21.65L307.22-21.65Q308.67-21.65 309.25-21 309.82-20.35 309.82-18.95L309.82-18.95ZM347.62-1.75Q346.87-3.15 346.67-4.88 346.47-6.6 346.47-9.65L346.47-9.65Q346.47-12.55 345.67-14.7 344.87-16.85 342.37-16.85L342.37-16.85Q341.42-16.85 340.49-16.28 339.57-15.7 339.12-14.85L339.12-14.85Q338.42-13.5 338.17-11.93 337.92-10.35 337.92-8.3L337.92-8.3Q337.92-7 338.07-5.65L338.07-5.65Q338.07-5.25 338.14-4.38 338.22-3.5 338.22-2.8L338.22-2.8Q338.22 0.2 336.12 0.2L336.12 0.2Q333.37 0.2 333.22-2.7L333.22-2.7Q333.22-4.75 333.27-4.9L333.27-4.9 333.27-7.05Q333.27-8.85 333.12-10.55 332.97-12.25 332.77-13.1L332.77-13.1Q332.32-14.75 331.59-15.65 330.87-16.55 329.32-16.55L329.32-16.55Q327.12-16.55 325.77-14.65L325.77-14.65Q324.82-13.15 324.52-11L324.52-11Q324.22-8.25 324.09-6.68 323.97-5.1 323.97-3.05L323.97-3.05Q323.97-1.6 323.49-0.7 323.02 0.2 321.72 0.2L321.72 0.2Q320.77 0.2 319.74-0.33 318.72-0.85 318.72-1.75L318.72-1.75Q318.72-2.7 318.92-3.65L318.92-3.65Q319.37-6.5 319.37-13.85L319.37-13.85Q319.37-15.05 318.79-16.18 318.22-17.3 317.42-17.3L317.42-17.3Q317.22-17.3 316.69-17.1 316.17-16.9 315.92-16.9L315.92-16.9Q315.27-16.9 314.74-17.5 314.22-18.1 314.22-18.5L314.22-18.5Q314.22-19.75 315.44-20.63 316.67-21.5 318.02-21.5L318.02-21.5Q319.87-21.5 321.17-20.35 322.47-19.2 323.17-17.15L323.17-17.15Q324.32-19.15 326.27-20.38 328.22-21.6 330.62-21.6L330.62-21.6Q332.12-21.6 333.04-21.23 333.97-20.85 334.57-20.18 335.17-19.5 336.12-18.15L336.12-18.15Q337.37-19.75 339.34-20.65 341.32-21.55 343.42-21.55L343.42-21.55Q345.92-21.55 347.92-19.53 349.92-17.5 350.62-14.85L350.62-14.85Q350.97-13.5 350.97-9.65L350.97-9.65 351.17-6.75Q351.42-4.15 352.87-3.6L352.87-3.6Q354.57-3.1 354.57-2.55L354.57-2.55Q354.57-1.35 353.97-0.8L353.97-0.8Q353.52-0.5 352.72-0.15 351.92 0.2 351.47 0.2L351.47 0.2Q348.77 0.2 347.62-1.75L347.62-1.75ZM380.87-2.4Q380.87-1.3 379.69-0.55 378.52 0.2 377.52 0.2L377.52 0.2Q375.62 0.2 374.49-0.28 373.37-0.75 372.42-2.05L372.42-2.05Q371.12-0.9 368.87-0.33 366.62 0.25 364.72 0.25L364.72 0.25Q361.62 0.25 359.62-1.43 357.62-3.1 357.62-6.35L357.62-6.35Q357.62-7.75 358.37-8.93 359.12-10.1 360.42-11L360.42-11Q361.87-11.95 363.72-12.48 365.57-13 367.57-13L367.57-13Q368.62-13 370.07-12.6 371.52-12.2 372.32-11.75L372.32-11.75 372.32-12.55Q372.32-15.25 371.02-16.28 369.72-17.3 366.82-17.3L366.82-17.3Q365.97-17.3 365.14-16.95 364.32-16.6 363.27-16L363.27-16Q361.87-15.25 360.62-15.25L360.62-15.25Q360.17-15.25 359.77-15.88 359.37-16.5 359.37-17L359.37-17Q359.37-18.45 360.74-19.5 362.12-20.55 364.02-21.08 365.92-21.6 367.42-21.6L367.42-21.6Q368.92-21.6 370.87-21.03 372.82-20.45 374.07-19.45L374.07-19.45Q375.57-18.15 376.39-16.43 377.22-14.7 377.22-12.65L377.22-12.65Q377.22-12 377.12-10.7L377.12-10.7Q377.02-9.3 377.02-8.3L377.02-8.3Q377.02-7.85 376.92-6.95L376.92-6.95Q376.82-5.85 376.82-5.2L376.82-5.2Q376.82-4.6 377.27-4.17 377.72-3.75 378.32-3.75L378.32-3.75 379.72-3.8Q380.27-3.8 380.57-3.4 380.87-3 380.87-2.4L380.87-2.4ZM364.77-3.7Q366.92-3.7 368.37-4.15 369.82-4.6 371.87-5.8L371.87-5.8Q372.07-6.65 372.12-8.05L372.12-8.05Q369.37-9.35 367.57-9.35L367.57-9.35Q365.52-9.35 363.92-8.6 362.32-7.85 362.32-5.95L362.32-5.95Q362.32-5 363.12-4.35 363.92-3.7 364.77-3.7L364.77-3.7ZM389.76-7.75Q389.76-5.85 390.34-4.83 390.91-3.8 391.81-3.8L391.81-3.8Q392.31-3.8 392.76-3.88 393.21-3.95 393.66-3.95L393.66-3.95Q394.16-3.95 394.54-3.45 394.91-2.95 394.91-2.35L394.91-2.35Q394.91-1.15 393.79-0.48 392.66 0.2 390.76 0.2L390.76 0.2Q389.41 0.2 388.04-0.63 386.66-1.45 385.76-3.23 384.86-5 384.86-7.65L384.86-7.65Q384.86-13.35 385.06-17.3L385.06-17.3Q385.31-22 385.31-29.15L385.31-29.15Q385.31-31.4 385.56-32.3L385.56-32.3Q385.86-33 386.54-33.38 387.21-33.75 387.96-33.75L387.96-33.75Q388.71-33.75 389.29-33.5 389.86-33.25 390.06-32.7L390.06-32.7Q390.26-32.1 390.34-31.53 390.41-30.95 390.41-29.9L390.41-29.9Q390.41-27.85 390.26-25.95L390.26-25.95Q390.16-23.65 390.16-22.6L390.16-22.6Q389.76-13.8 389.76-7.75L389.76-7.75ZM400.86-32.1Q402.61-31.95 403.91-31.18 405.21-30.4 405.21-28.85L405.21-28.85Q405.21-27.7 404.14-27.03 403.06-26.35 401.56-26.35L401.56-26.35Q400.11-26.35 399.56-27.1 399.01-27.85 399.01-28.65L399.01-28.65Q399.01-30.15 399.34-31.15 399.66-32.15 400.86-32.1L400.86-32.1ZM404.86-18.95L404.86-9.95 404.86-8.5Q404.86-6.55 404.99-4.83 405.11-3.1 405.31-1.35L405.31-1.35Q405.26-0.85 404.56-0.33 403.86 0.2 403.31 0.2L403.31 0.2Q402.36 0.2 401.39-0.18 400.41-0.55 400.21-1.1L400.21-1.1Q399.91-2.7 399.91-3.95L399.91-3.95Q399.91-8.05 399.66-13.15L399.66-13.15Q399.46-17.65 399.46-19.45L399.46-19.45Q399.46-20.35 400.36-21 401.26-21.65 402.26-21.65L402.26-21.65Q403.71-21.65 404.29-21 404.86-20.35 404.86-18.95L404.86-18.95ZM413.51-17.1L411.11-17.3Q410.41-17.4 409.98-17.9 409.56-18.4 409.56-19.1L409.56-19.1Q409.56-19.45 409.73-19.85 409.91-20.25 410.26-20.55L410.26-20.55Q410.91-21.2 413.76-21.2L413.76-21.2Q414.16-23.15 414.16-25.15L414.16-25.15Q414.16-25.9 414.11-26.45 414.06-27 414.06-27.3L414.06-27.3Q414.06-28.4 414.88-28.95 415.71-29.5 416.76-29.5L416.76-29.5Q418.06-29.5 418.53-28.85 419.01-28.2 419.01-26.45L419.01-26.45Q419.01-23.85 418.56-21.35L418.56-21.35Q419.36-21.35 420.76-21.45L420.76-21.45Q422.66-21.55 423.51-21.55L423.51-21.55Q424.36-21.55 424.98-21.13 425.61-20.7 425.61-19.95L425.61-19.95Q425.61-18 423.86-17.65L423.86-17.65Q422.01-17.2 418.11-17.1L418.11-17.1Q417.96-15.15 417.96-12.85L417.96-12.85Q417.96-9.25 418.41-6.95L418.41-6.95Q418.71-5.35 419.43-4.63 420.16-3.9 421.61-3.9L421.61-3.9Q422.46-3.9 423.36-4.35L423.36-4.35Q423.96-4.7 424.46-4.7L424.46-4.7Q425.16-4.7 425.48-4.25 425.81-3.8 425.81-3.05L425.81-3.05Q425.81-1.65 424.31-0.73 422.81 0.2 420.46 0.2L420.46 0.2Q419.01 0.2 417.53-0.5 416.06-1.2 415.06-2.25L415.06-2.25Q414.91-2.4 414.51-3.4 414.11-4.4 413.81-5.55L413.81-5.55Q413.31-7.9 413.31-12.15L413.31-12.15Q413.31-14 413.51-17.1L413.51-17.1ZM449.71-16.05Q450.11-15.35 450.36-14.03 450.61-12.7 450.61-11.65L450.61-11.65Q450.61-9.7 449.76-6.1L449.76-6.1Q446.31 0.2 439.56 0.2L439.56 0.2Q437.06 0.2 434.46-1.45 431.86-3.1 430.86-5.25L430.86-5.25Q429.51-9.55 429.51-10.7L429.51-10.7Q429.51-12.7 430.38-14.95 431.26-17.2 432.61-18.85L432.61-18.85Q433.46-20 435.66-20.83 437.86-21.65 439.66-21.65L439.66-21.65Q443.16-21.65 445.61-20.33 448.06-19 449.71-16.05L449.71-16.05ZM445.36-8Q445.61-8.65 445.61-11.35L445.61-11.35Q445.61-12.8 445.08-14.2 444.56-15.6 443.56-16.6L443.56-16.6Q443.46-16.7 443.01-16.93 442.56-17.15 441.78-17.38 441.01-17.6 440.01-17.6L440.01-17.6Q437.21-17.6 435.91-15.35 434.61-13.1 434.61-10.25L434.61-10.25Q434.61-9.75 434.88-8.35 435.16-6.95 435.36-6.6L435.36-6.6Q435.51-6.25 436.13-5.63 436.76-5 437.68-4.53 438.61-4.05 439.61-4.05L439.61-4.05Q441.86-4.05 443.21-5.13 444.56-6.2 445.36-8L445.36-8Z" opacity="1" transform="matrix(1,0,0,1,0,0)" fill="#f36527" class="slogan-text-1" data-fill-palette-color="secondary" id="text-1"></path></svg></g></svg></g></svg></g></svg></g><g transform="matrix(1,0,0,1,0,5.630924504380133)"><svg viewBox="0 0 126.43244552406189 131.89724856022636" height="131.89724856022636" width="126.43244552406189"><g><svg xmlns="http://www.w3.org/2000/svg" xmlns:xlink="http://www.w3.org/1999/xlink" version="1.1" x="0" y="0" viewBox="6.864999771118164 5 86.2710952758789 90" enable-background="new 0 0 100 100" xml:space="preserve" height="131.89724856022636" width="126.43244552406189" class="icon-icon-0" data-fill-palette-color="accent" id="icon-0"><path d="M89.167 50.22c-3.415-1.285-7.36-1.868-10.558-3.646-2.615-1.452-2.994-4.285-4.391-6.673-4.209-7.193-14.92-11.186-22.798-11.583-0.581-0.029-6.345 0.11-6.345 0.11S45.217 9.982 39.641 5c-9.132 3.518-15.154 32.891-24.556 55.738l32.5 18.764c2.92-3.529 6.099-5.811 9.491-5.457 10.33 1.073 28.908 0.61 33.166-7.822C92.462 61.824 95.945 52.773 89.167 50.22z" fill="#f36527" data-fill-palette-color="accent"></path><path d="M6.865 76.797L38.392 95c1.807-3.686 3.818-7.609 6.01-11.059L12.91 65.758C11.043 69.824 9.044 73.574 6.865 76.797z" fill="#f36527" data-fill-palette-color="accent"></path></svg></g></svg></g></svg></g><defs></defs></svg>